G04 PROTEUS GERBER X2 FILE*
%TF.GenerationSoftware,Labcenter,Proteus,8.13-SP0-Build31525*%
%TF.CreationDate,2023-11-13T13:03:38+00:00*%
%TF.FileFunction,Copper,L2,Bot*%
%TF.FilePolarity,Positive*%
%TF.Part,Single*%
%TF.SameCoordinates,{d9887baf-ebf7-4e26-a593-32e53c83881c}*%
%FSLAX45Y45*%
%MOMM*%
G01*
%TA.AperFunction,Conductor*%
%ADD11C,2.032000*%
%ADD10C,1.270000*%
%TA.AperFunction,ViaPad*%
%ADD12C,0.762000*%
%ADD13C,1.778000*%
%TA.AperFunction,WasherPad*%
%ADD14C,1.524000*%
%TA.AperFunction,ComponentPad*%
%ADD15C,3.048000*%
%TA.AperFunction,ComponentPad*%
%ADD16C,1.270000*%
%TA.AperFunction,ComponentPad*%
%ADD17C,1.778000*%
%TA.AperFunction,ComponentPad*%
%ADD18R,2.032000X2.032000*%
%TA.AperFunction,OtherPad,Unknown*%
%ADD19C,4.572000*%
%TA.AperFunction,NonConductor*%
%ADD70C,0.203200*%
%TD.AperFunction*%
D11*
X-1992000Y+6480000D02*
X-1992000Y+4730000D01*
X-1992000Y+3230000D01*
X-2246000Y+3230000D02*
X-2246000Y+4730000D01*
D10*
X-2500000Y+4730000D02*
X-2500000Y+3230000D01*
X-2746000Y+1730000D02*
X-4996000Y+1730000D01*
X-2746000Y+1476000D02*
X-4996000Y+1476000D01*
X-9246000Y+5980000D02*
X-9810897Y+6544897D01*
X-9810897Y+7789991D01*
X-9370888Y+8230000D01*
X-9246000Y+8230000D01*
X-9246000Y+5472000D02*
X-8776787Y+5941213D01*
X-8776787Y+6164122D01*
X-9084667Y+6164122D01*
X-9492606Y+6572061D01*
X-9492606Y+7564969D01*
X-9398400Y+7659175D01*
X-9246000Y+7722000D01*
X-9246000Y+4456000D02*
X-9095000Y+4607000D01*
X-8246000Y+4607000D01*
X-9246000Y+2206000D02*
X-9095000Y+2357000D01*
X-8246000Y+2357000D01*
X-9246000Y-44000D02*
X-9040089Y+161911D01*
X-8198993Y+161911D01*
X-8246000Y+114904D01*
X-8246000Y+107000D01*
X-8119000Y-20000D02*
X-7746000Y-20000D01*
X-6730000Y-20000D02*
X-6548803Y+161197D01*
X-6548803Y+3915197D01*
X-5996000Y+4468000D01*
X-6730000Y+2230000D02*
X-6730000Y+3988000D01*
X-5996000Y+4722000D01*
X-8119000Y+2230000D02*
X-7746000Y+2230000D01*
X-9246000Y+3222000D02*
X-8797592Y+3670408D01*
X-8797592Y+3802039D01*
X-9104979Y+4109426D01*
X-9460904Y+4109426D01*
X-9460904Y+4335923D01*
X-9493261Y+4368280D01*
X-9493261Y+5224739D01*
X-9246000Y+5472000D01*
X-7746000Y+4980000D02*
X-7746000Y+4480000D01*
X-8119000Y+4480000D01*
X-6730000Y+4980000D02*
X-5996000Y+5471147D01*
X-5996000Y+5484000D01*
X-5996000Y+4976000D02*
X-7750000Y+3222000D01*
X-9246000Y+3222000D01*
X-5996000Y+5230000D02*
X-6996000Y+4230000D01*
X-7246000Y+4230000D01*
X-7246000Y+6505350D01*
X-8970650Y+8230000D01*
X-9246000Y+8230000D01*
X-6730000Y+6730000D02*
X-6730000Y+6472000D01*
X-5996000Y+5738000D01*
X-7746000Y+6730000D02*
X-8119000Y+6730000D01*
X-8246000Y+6857000D02*
X-9095000Y+6857000D01*
X-9246000Y+6706000D01*
D11*
X-2246000Y+5730000D02*
X-2246000Y+6480000D01*
X-2246000Y+4730000D02*
X-2246000Y+5730000D01*
D10*
X-3262000Y+5730000D02*
X-3262000Y+5246000D01*
X-3246000Y+5230000D01*
X-2500000Y+5230000D01*
X-2500000Y+4730000D01*
X-2500000Y+6480000D02*
X-2500000Y+5230000D01*
X-3246000Y+4214000D02*
X-3603499Y+3856501D01*
X-3603499Y+3180464D01*
X-5458890Y+3180464D01*
X-5826000Y+3547574D01*
X-5826000Y+3790000D01*
X-5996000Y+3960000D01*
X-2992000Y+2568965D02*
X-3603499Y+3180464D01*
X-2992000Y+2568965D02*
X-2824518Y+2401482D01*
X-2824517Y+2401482D01*
X-1903036Y+1480000D02*
X-1903035Y+1480000D01*
X-1903036Y+1480000D01*
X-3746000Y+2480000D02*
X-3746000Y+2714000D01*
X-3762000Y+2730000D01*
X-2746000Y+2730000D02*
X-2667771Y+2730000D01*
X-2246000Y+3151771D01*
X-2246000Y+3230000D01*
X-9246000Y+1480000D02*
X-9851176Y+2085176D01*
X-9851176Y+3445298D01*
X-9566474Y+3730000D01*
X-9437402Y+3730000D01*
X-9246000Y+3730000D01*
X-9246000Y+5980000D02*
X-9816828Y+5409172D01*
X-9816828Y+4109426D01*
X-9437402Y+3730000D01*
X-9246000Y+3222000D02*
X-9496000Y+2972000D01*
X-9496000Y+2103013D01*
X-8984446Y+1591459D01*
X-8984446Y+1233554D01*
X-9246000Y+972000D01*
X-246000Y+6504000D02*
X+4000Y+6254000D01*
X+4000Y+4496000D01*
X-246000Y+4246000D01*
X-6996000Y+9480000D02*
X-7241821Y+9725821D01*
X-8749159Y+9725821D01*
X-8994980Y+9480000D01*
X-2816518Y+2393482D02*
X-2808518Y+2401482D01*
X-2730000Y+2480000D01*
X-2808518Y+2401482D02*
X-2824517Y+2401482D01*
X-2824518Y+2401482D01*
X-2816518Y+2393482D01*
X-1903036Y+1480000D01*
X-1903035Y+1480000D01*
X-2824517Y+2401482D02*
X-2816518Y+2393482D01*
X-1903036Y+1480000D01*
X-742000Y+230000D02*
X-504000Y+230000D01*
X-2746000Y+1476000D02*
X-2746000Y+980000D01*
X-1746000Y-20000D01*
X-246000Y-20000D01*
X+4000Y+230000D01*
X-3742000Y+230000D02*
X-3492000Y-20000D01*
X-2618578Y-20000D01*
X-2492000Y+106578D01*
X-2492000Y+230000D01*
X-3742000Y+230000D02*
X-3742000Y+87620D01*
X-3849620Y-20000D01*
X-5004000Y-20000D01*
X-5254000Y+230000D01*
X-1262000Y+980000D02*
X-1500000Y+742000D01*
X-1500000Y+230000D01*
X-246000Y+980000D02*
X+4000Y+730000D01*
D11*
X+4000Y+230000D01*
X+4000Y+730000D02*
X+4000Y+1343692D01*
X-1882308Y+3230000D01*
X-1992000Y+3230000D01*
D10*
X-3458890Y+1164464D02*
X-2746000Y+451574D01*
X-2746000Y+230000D01*
X-3458890Y+2180464D02*
X-3262426Y+1984000D01*
X-2746000Y+1984000D01*
X-4996000Y+1984000D02*
X-3262426Y+1984000D01*
X-3996000Y+1214000D02*
X-3996000Y+230000D01*
D11*
X-3366000Y+9024000D02*
X-2740000Y+9024000D01*
X-2246000Y+8530000D01*
X-2246000Y+6480000D01*
D10*
X-7496380Y+9480000D02*
X-7496380Y+8762380D01*
X-5996000Y+7262000D01*
X-7996760Y+9480000D02*
X-7996760Y+9029404D01*
X-5996000Y+7028644D01*
X-5996000Y+7008000D01*
X-2996000Y+6730000D02*
X-2996000Y+6246000D01*
X-2980000Y+6230000D01*
X-3996000Y+6230000D02*
X-4480000Y+6230000D01*
X-4496000Y+6246000D01*
X-7496000Y+7980000D02*
X-7230000Y+7980000D01*
X-6730000Y+7480000D01*
X-7746000Y+7480000D02*
X-7181313Y+6915313D01*
X-6157313Y+6915313D01*
X-5996000Y+6754000D01*
X-9246000Y+7214000D02*
X-8512000Y+7214000D01*
X-8496000Y+7230000D01*
X-1992000Y+6480000D02*
X-1992000Y+6934370D01*
X-1977771Y+6948599D01*
X-8996000Y+8730000D02*
X-9495360Y+9480000D01*
X-8496000Y+8730000D02*
X-8497140Y+8981140D01*
X-8497140Y+9480000D01*
X-9246000Y+4964000D02*
X-8512000Y+4964000D01*
X-8496000Y+4980000D01*
X-9246000Y+2714000D02*
X-8512000Y+2714000D01*
X-8496000Y+2730000D01*
X-8534334Y+400625D02*
X-9182625Y+400625D01*
X-9246000Y+464000D01*
X-7559263Y+1416263D02*
X-8246000Y+2103000D01*
X-5996000Y+3706000D02*
X-5996000Y+3499496D01*
X-5996000Y+2873668D01*
X-6064086Y+2805582D01*
X-6064086Y+2787568D01*
X-3762000Y+2730000D02*
X-5226504Y+2730000D01*
X-5996000Y+3499496D01*
X-5254000Y+230000D02*
X-5844405Y+820405D01*
X-5996000Y+3960000D02*
X-5404652Y+3960000D01*
X-5365856Y+3921204D01*
X-5254000Y+230000D02*
X-5851345Y-367345D01*
X-8025655Y-367345D01*
X-8190213Y-202787D01*
X-8246000Y-147000D01*
X-8190213Y-202787D02*
X-7667349Y-202787D01*
X-7559263Y-94701D01*
X-7559263Y+1416263D01*
X-4746000Y+230000D02*
X-4746000Y+1063824D01*
X-4726000Y+1083824D01*
X-5006148Y+4408235D02*
X-4692383Y+4722000D01*
X-4496000Y+4722000D01*
X-4496000Y+4976000D02*
X-3946911Y+4426911D01*
X-2914383Y+4426911D01*
X-1326883Y+3661177D02*
X-677177Y+3661177D01*
X-246000Y+3230000D01*
X-3119824Y+3418383D02*
X-3119824Y+3103824D01*
X-2746000Y+2730000D01*
X-3810853Y+5491470D02*
X-4488530Y+5491470D01*
X-4496000Y+5484000D01*
X-4496000Y+7516000D02*
X-4210000Y+7516000D01*
X-3464000Y+8262000D01*
X-3366000Y+8262000D01*
D11*
X-3366000Y+8008000D02*
X-2496000Y+7980000D01*
D10*
X-3366000Y+8516000D02*
X-3960000Y+8516000D01*
X-3996000Y+8480000D01*
X-3996000Y+7230000D02*
X-4464000Y+7230000D01*
X-4496000Y+7262000D01*
X-3366000Y+8008000D02*
X-3250000Y+7892000D01*
X-3250000Y+6730000D02*
X-3250000Y+7892000D01*
X-8246000Y+4353000D02*
X-7995603Y+4102603D01*
X-7523235Y+4102603D01*
X-4729085Y+8765085D02*
X-4496000Y+8532000D01*
X-6996000Y+9480000D02*
X-5444000Y+9480000D01*
X-4729085Y+8765085D01*
X-4496000Y+5230000D02*
X-4141147Y+4875147D01*
X-3642765Y+4875147D01*
X-996000Y+4730000D02*
X-246000Y+4730000D01*
X-246000Y+4980000D01*
X-1903035Y+1480000D02*
X-996000Y+1480000D01*
X-1903036Y+1480000D02*
X-996000Y+1480000D01*
X-1246000Y+230000D02*
X-996000Y+230000D01*
X-996000Y+1480000D02*
X-996000Y+230000D01*
X-742000Y+230000D01*
D11*
X-504000Y+230000D02*
X-504000Y+1342548D01*
X-920197Y+1758745D01*
X-246000Y+5996000D02*
X-1246000Y+5974667D01*
X-1246000Y+4480000D01*
D10*
X-246000Y+3738000D02*
X-988000Y+4480000D01*
X-1246000Y+4480000D01*
X-7750000Y+7980000D02*
X-7750000Y+8410570D01*
X-7759282Y+8419852D01*
X-6995621Y+8926192D02*
X-6995621Y+9479621D01*
X-6996000Y+9480000D01*
X-7523235Y+4102603D02*
X-7523235Y+5880235D01*
X-8246000Y+6603000D01*
X-4496000Y+9480000D02*
X-4496000Y+8532000D01*
X-246000Y+5488000D02*
X-988000Y+5488000D01*
X-996000Y+5480000D01*
X-3996000Y+2230000D02*
X-4382912Y+2230000D01*
X-4408500Y+2204412D01*
X-2746000Y+1984000D02*
X-2637941Y+1984000D01*
X-2036589Y+1382648D01*
X-1750000Y+1000000D01*
X-1250000Y+3000000D02*
X-1075265Y+2980000D01*
X-121737Y+2980000D01*
X-853Y+3100884D01*
X-853Y+4000853D01*
X-246000Y+4246000D01*
D12*
X-3366000Y+7758000D03*
X-8496000Y+7230000D03*
X-8496000Y+4980000D03*
X-8496000Y+2730000D03*
X-5844405Y+792220D03*
X-4408500Y+2204412D03*
X-996000Y+5480000D03*
D13*
X-6995621Y+8926192D03*
X-7759282Y+8419852D03*
X-8496000Y+8730000D03*
X-8996000Y+8730000D03*
X-7523235Y+5880235D03*
X-4496000Y+9480000D03*
X-3996000Y+8480000D03*
X-3996000Y+7230000D03*
X-2496000Y+7980000D03*
X-1251638Y+5934430D03*
X-988000Y+5488000D03*
X-3810853Y+5491470D03*
X-7523235Y+4102603D03*
X-6064086Y+2787568D03*
X-5365856Y+3921204D03*
X-5006148Y+4408235D03*
X-4726000Y+1083824D03*
X-5844405Y+820405D03*
X-4382912Y+2230000D03*
X-8534334Y+400625D03*
X-920197Y+1758745D03*
X-1246000Y+4480000D03*
X-1326883Y+3661177D03*
X-2914383Y+4426911D03*
X-3642765Y+4875147D03*
X-1977771Y+6948599D03*
X-996000Y+4730000D03*
X-3119824Y+3418383D03*
X-1750000Y+1000000D03*
X-1250000Y+3000000D03*
D14*
X-3366000Y+9278000D03*
X-3366000Y+9024000D03*
X-3366000Y+8770000D03*
X-3366000Y+8516000D03*
X-3366000Y+8262000D03*
X-3366000Y+8008000D03*
X-5996000Y+3706000D03*
X-5996000Y+3960000D03*
X-5996000Y+4214000D03*
X-5996000Y+4468000D03*
X-5996000Y+4722000D03*
X-5996000Y+4976000D03*
X-5996000Y+5230000D03*
X-5996000Y+5484000D03*
X-5996000Y+5738000D03*
X-5996000Y+5992000D03*
X-5996000Y+6246000D03*
X-5996000Y+6500000D03*
X-5996000Y+6754000D03*
X-5996000Y+7008000D03*
X-5996000Y+7262000D03*
X-5996000Y+7516000D03*
X-5996000Y+7770000D03*
X-5996000Y+8024000D03*
X-5996000Y+8278000D03*
X-5996000Y+8532000D03*
X-4496000Y+3706000D03*
X-4496000Y+3960000D03*
X-4496000Y+4214000D03*
X-4496000Y+4468000D03*
X-4496000Y+4722000D03*
X-4496000Y+4976000D03*
X-4496000Y+5230000D03*
X-4496000Y+5484000D03*
X-4496000Y+5738000D03*
X-4496000Y+5992000D03*
X-4496000Y+6246000D03*
X-4496000Y+6500000D03*
X-4496000Y+6754000D03*
X-4496000Y+7008000D03*
X-4496000Y+7262000D03*
X-4496000Y+7516000D03*
X-4496000Y+7770000D03*
X-4496000Y+8024000D03*
X-4496000Y+8278000D03*
X-4496000Y+8532000D03*
X-1230000Y+9032000D03*
X-1230000Y+8778000D03*
X-1230000Y+8524000D03*
X-1230000Y+8270000D03*
X-1230000Y+8016000D03*
X-1230000Y+7762000D03*
D15*
X-9246000Y+8230000D03*
X-9246000Y+7722000D03*
X-9246000Y+7214000D03*
X-9246000Y+6706000D03*
X-6996000Y+9480000D03*
X-7496380Y+9480000D03*
X-7996760Y+9480000D03*
X-8497140Y+9480000D03*
X-8994980Y+9480000D03*
X-9495360Y+9480000D03*
D16*
X-8246000Y+6603000D03*
X-8119000Y+6730000D03*
X-8246000Y+6857000D03*
D17*
X-7746000Y+6730000D03*
X-6730000Y+6730000D03*
D15*
X-9246000Y+5980000D03*
X-9246000Y+5472000D03*
X-9246000Y+4964000D03*
X-9246000Y+4456000D03*
D17*
X-7746000Y+4980000D03*
X-6730000Y+4980000D03*
D16*
X-8246000Y+4353000D03*
X-8119000Y+4480000D03*
X-8246000Y+4607000D03*
D15*
X+4000Y+230000D03*
X-504000Y+230000D03*
D18*
X-2500000Y+6480000D03*
X-2246000Y+6480000D03*
X-1992000Y+6480000D03*
X-2500000Y+4730000D03*
X-2246000Y+4730000D03*
X-1992000Y+4730000D03*
X-2500000Y+3230000D03*
X-2246000Y+3230000D03*
X-1992000Y+3230000D03*
X-4996000Y+1476000D03*
X-4996000Y+1730000D03*
X-4996000Y+1984000D03*
X-2746000Y+1476000D03*
X-2746000Y+1730000D03*
X-2746000Y+1984000D03*
X-1500000Y+230000D03*
X-1246000Y+230000D03*
X-2746000Y+230000D03*
X-2492000Y+230000D03*
D17*
X-3458890Y+2180464D03*
X-3458890Y+1164464D03*
X-246000Y+980000D03*
X-1262000Y+980000D03*
D15*
X-9246000Y+3730000D03*
X-9246000Y+3222000D03*
X-9246000Y+2714000D03*
X-9246000Y+2206000D03*
D16*
X-8246000Y+2103000D03*
X-8119000Y+2230000D03*
X-8246000Y+2357000D03*
D17*
X-7746000Y+2230000D03*
X-6730000Y+2230000D03*
D15*
X-9246000Y+1480000D03*
X-9246000Y+972000D03*
X-9246000Y+464000D03*
X-9246000Y-44000D03*
D16*
X-8246000Y-147000D03*
X-8119000Y-20000D03*
X-8246000Y+107000D03*
D17*
X-7746000Y-20000D03*
X-6730000Y-20000D03*
X-2246000Y+5730000D03*
X-3262000Y+5730000D03*
X-3246000Y+5230000D03*
X-3246000Y+4214000D03*
X-2746000Y+2730000D03*
X-3762000Y+2730000D03*
X-3746000Y+2480000D03*
X-2730000Y+2480000D03*
D15*
X-4746000Y+230000D03*
X-5254000Y+230000D03*
X-246000Y+4980000D03*
X-246000Y+5488000D03*
X-246000Y+5996000D03*
X-246000Y+6504000D03*
X-246000Y+3230000D03*
X-246000Y+3738000D03*
X-246000Y+4246000D03*
D18*
X-3996000Y+230000D03*
X-3742000Y+230000D03*
D17*
X-3996000Y+2230000D03*
X-3996000Y+1214000D03*
D19*
X+0Y+8750000D03*
X-5996000Y-20000D03*
D18*
X-7496000Y+7980000D03*
X-7750000Y+7980000D03*
X-2996000Y+6730000D03*
X-3250000Y+6730000D03*
D17*
X-3996000Y+6230000D03*
X-2980000Y+6230000D03*
X-7746000Y+7480000D03*
X-6730000Y+7480000D03*
D19*
X-9500000Y+8750000D03*
D70*
X-631120Y+6890000D02*
X-387280Y+6890000D01*
X-387280Y+7080500D01*
X-468560Y+7175750D01*
X-549840Y+7175750D01*
X-631120Y+7080500D01*
X-631120Y+6890000D01*
X-387280Y+7271000D02*
X-631120Y+7271000D01*
X-387280Y+7556750D02*
X-509200Y+7413875D01*
X-631120Y+7556750D01*
X-509200Y+7271000D02*
X-509200Y+7413875D01*
X-631120Y+8033000D02*
X-387280Y+8033000D01*
X-387280Y+8271125D01*
X-427920Y+8318750D01*
X-468560Y+8318750D01*
X-509200Y+8271125D01*
X-509200Y+8033000D01*
X-509200Y+8271125D02*
X-549840Y+8318750D01*
X-631120Y+8318750D01*
X-631120Y+8747375D02*
X-427920Y+8509250D01*
X-387280Y+8556875D01*
X-387280Y+8652125D01*
X-427920Y+8699750D01*
X-549840Y+8461625D01*
X-590480Y+8461625D01*
X-631120Y+8509250D01*
X-631120Y+8604500D01*
X-509200Y+8747375D01*
X-631120Y+8795000D02*
X-387280Y+8795000D01*
X-387280Y+8985500D01*
X-468560Y+9080750D01*
X-549840Y+9080750D01*
X-631120Y+8985500D01*
X-631120Y+8795000D01*
X-250000Y+9949200D02*
X-250000Y+9796800D01*
X-326200Y+9873000D01*
X-402400Y+9796800D01*
X-402400Y+9949200D01*
X-453200Y+9847600D02*
X-605600Y+9847600D01*
X-605600Y+9873000D01*
X-580200Y+9898400D01*
X-478600Y+9898400D01*
X-453200Y+9873000D01*
X-453200Y+9822200D01*
X-478600Y+9796800D01*
X-580200Y+9796800D01*
X-681800Y+9898400D02*
X-783400Y+9898400D01*
X-808800Y+9873000D01*
X-808800Y+9796800D01*
X-681800Y+9796800D01*
X-656400Y+9822200D01*
X-681800Y+9847600D01*
X-808800Y+9847600D01*
X-885000Y+9949200D02*
X-885000Y+9822200D01*
X-910400Y+9796800D01*
X-986600Y+9796800D01*
X-1012000Y+9822200D01*
X-859600Y+9898400D02*
X-986600Y+9898400D01*
X-1215200Y+9796800D02*
X-1215200Y+9873000D01*
X-1189800Y+9898400D01*
X-1088200Y+9898400D01*
X-1062800Y+9873000D01*
X-1062800Y+9949200D02*
X-1062800Y+9796800D01*
X-1266000Y+9847600D02*
X-1418400Y+9847600D01*
X-1418400Y+9873000D01*
X-1393000Y+9898400D01*
X-1291400Y+9898400D01*
X-1266000Y+9873000D01*
X-1266000Y+9822200D01*
X-1291400Y+9796800D01*
X-1393000Y+9796800D01*
X-1469200Y+9796800D02*
X-1469200Y+9898400D01*
X-1469200Y+9873000D02*
X-1494600Y+9898400D01*
X-1596200Y+9898400D01*
X-1621600Y+9873000D01*
X-1875600Y+9822200D02*
X-1901000Y+9796800D01*
X-2002600Y+9796800D01*
X-2028000Y+9822200D01*
X-2028000Y+9847600D01*
X-2002600Y+9873000D01*
X-1901000Y+9873000D01*
X-1875600Y+9898400D01*
X-1875600Y+9923800D01*
X-1901000Y+9949200D01*
X-2002600Y+9949200D01*
X-2028000Y+9923800D01*
X-2104200Y+9949200D02*
X-2104200Y+9822200D01*
X-2129600Y+9796800D01*
X-2205800Y+9796800D01*
X-2231200Y+9822200D01*
X-2078800Y+9898400D02*
X-2205800Y+9898400D01*
X-2307400Y+9898400D02*
X-2409000Y+9898400D01*
X-2434400Y+9873000D01*
X-2434400Y+9796800D01*
X-2307400Y+9796800D01*
X-2282000Y+9822200D01*
X-2307400Y+9847600D01*
X-2434400Y+9847600D01*
X-2510600Y+9949200D02*
X-2510600Y+9822200D01*
X-2536000Y+9796800D01*
X-2612200Y+9796800D01*
X-2637600Y+9822200D01*
X-2485200Y+9898400D02*
X-2612200Y+9898400D01*
X-2764600Y+9898400D02*
X-2764600Y+9796800D01*
X-2764600Y+9949200D02*
X-2764600Y+9949200D01*
X-2891600Y+9873000D02*
X-2917000Y+9898400D01*
X-3018600Y+9898400D01*
X-3044000Y+9873000D01*
X-3044000Y+9822200D01*
X-3018600Y+9796800D01*
X-2917000Y+9796800D01*
X-2891600Y+9822200D01*
X-2891600Y+9873000D01*
X-3094800Y+9796800D02*
X-3094800Y+9898400D01*
X-3094800Y+9873000D02*
X-3120200Y+9898400D01*
X-3221800Y+9898400D01*
X-3247200Y+9873000D01*
X-3247200Y+9796800D01*
X-3501200Y+9949200D02*
X-3501200Y+9873000D01*
X-3577400Y+9796800D01*
X-3653600Y+9873000D01*
X-3653600Y+9949200D01*
X-3729800Y+9923800D02*
X-3755200Y+9949200D01*
X-3831400Y+9949200D01*
X-3856800Y+9923800D01*
X-3856800Y+9898400D01*
X-3831400Y+9873000D01*
X-3755200Y+9873000D01*
X-3729800Y+9847600D01*
X-3729800Y+9796800D01*
X-3856800Y+9796800D01*
M02*
