G04 PROTEUS GERBER X2 FILE*
%TF.GenerationSoftware,Labcenter,Proteus,8.13-SP0-Build31525*%
%TF.CreationDate,2023-11-13T13:03:38+00:00*%
%TF.FileFunction,Legend,Top*%
%TF.FilePolarity,Positive*%
%TF.Part,Single*%
%TF.SameCoordinates,{d9887baf-ebf7-4e26-a593-32e53c83881c}*%
%FSLAX45Y45*%
%MOMM*%
G01*
%TA.AperFunction,Material*%
%ADD71C,0.508000*%
%ADD20C,0.152400*%
%ADD21C,0.203200*%
%TD.AperFunction*%
D71*
X-3137400Y+9278000D02*
X-3137531Y+9281158D01*
X-3138597Y+9287476D01*
X-3140828Y+9293794D01*
X-3144473Y+9300112D01*
X-3150048Y+9306351D01*
X-3156366Y+9310947D01*
X-3162684Y+9313880D01*
X-3169002Y+9315542D01*
X-3175320Y+9316100D01*
X-3175500Y+9316100D01*
X-3213600Y+9278000D02*
X-3213469Y+9281158D01*
X-3212403Y+9287476D01*
X-3210172Y+9293794D01*
X-3206527Y+9300112D01*
X-3200952Y+9306351D01*
X-3194634Y+9310947D01*
X-3188316Y+9313880D01*
X-3181998Y+9315542D01*
X-3175680Y+9316100D01*
X-3175500Y+9316100D01*
X-3213600Y+9278000D02*
X-3213469Y+9274842D01*
X-3212403Y+9268524D01*
X-3210172Y+9262206D01*
X-3206527Y+9255888D01*
X-3200952Y+9249649D01*
X-3194634Y+9245053D01*
X-3188316Y+9242120D01*
X-3181998Y+9240458D01*
X-3175680Y+9239900D01*
X-3175500Y+9239900D01*
X-3137400Y+9278000D02*
X-3137531Y+9274842D01*
X-3138597Y+9268524D01*
X-3140828Y+9262206D01*
X-3144473Y+9255888D01*
X-3150048Y+9249649D01*
X-3156366Y+9245053D01*
X-3162684Y+9242120D01*
X-3169002Y+9240458D01*
X-3175320Y+9239900D01*
X-3175500Y+9239900D01*
D20*
X-3493000Y+9646300D02*
X-3493000Y+7639700D01*
X-3239000Y+7639700D01*
X-3239000Y+9646300D01*
X-3493000Y+9646300D01*
D21*
X-3147560Y+8743000D02*
X-3147560Y+8774750D01*
X-3117080Y+8774750D01*
X-3117080Y+8711250D01*
X-3147560Y+8679500D01*
X-3178040Y+8679500D01*
X-3208520Y+8711250D01*
X-3208520Y+8758875D01*
X-3193280Y+8774750D01*
X-3132320Y+8806500D02*
X-3117080Y+8822375D01*
X-3117080Y+8885875D01*
X-3132320Y+8901750D01*
X-3147560Y+8901750D01*
X-3162800Y+8885875D01*
X-3162800Y+8822375D01*
X-3178040Y+8806500D01*
X-3193280Y+8806500D01*
X-3208520Y+8822375D01*
X-3208520Y+8885875D01*
X-3193280Y+8901750D01*
X-3117080Y+8933500D02*
X-3208520Y+8933500D01*
X-3162800Y+8981125D01*
X-3208520Y+9028750D01*
X-3117080Y+9028750D01*
D71*
X-6148400Y+3706000D02*
X-6148531Y+3709158D01*
X-6149597Y+3715476D01*
X-6151828Y+3721794D01*
X-6155473Y+3728112D01*
X-6161048Y+3734351D01*
X-6167366Y+3738947D01*
X-6173684Y+3741880D01*
X-6180002Y+3743542D01*
X-6186320Y+3744100D01*
X-6186500Y+3744100D01*
X-6224600Y+3706000D02*
X-6224469Y+3709158D01*
X-6223403Y+3715476D01*
X-6221172Y+3721794D01*
X-6217527Y+3728112D01*
X-6211952Y+3734351D01*
X-6205634Y+3738947D01*
X-6199316Y+3741880D01*
X-6192998Y+3743542D01*
X-6186680Y+3744100D01*
X-6186500Y+3744100D01*
X-6224600Y+3706000D02*
X-6224469Y+3702842D01*
X-6223403Y+3696524D01*
X-6221172Y+3690206D01*
X-6217527Y+3683888D01*
X-6211952Y+3677649D01*
X-6205634Y+3673053D01*
X-6199316Y+3670120D01*
X-6192998Y+3668458D01*
X-6186680Y+3667900D01*
X-6186500Y+3667900D01*
X-6148400Y+3706000D02*
X-6148531Y+3702842D01*
X-6149597Y+3696524D01*
X-6151828Y+3690206D01*
X-6155473Y+3683888D01*
X-6161048Y+3677649D01*
X-6167366Y+3673053D01*
X-6173684Y+3670120D01*
X-6180002Y+3668458D01*
X-6186320Y+3667900D01*
X-6186500Y+3667900D01*
D20*
X-5869000Y+3337700D02*
X-5869000Y+8900300D01*
X-6123000Y+8900300D01*
X-6123000Y+3337700D01*
X-5869000Y+3337700D01*
D21*
X-6310960Y+5992000D02*
X-6295720Y+5992000D01*
X-6280480Y+6007875D01*
X-6280480Y+6071375D01*
X-6295720Y+6087250D01*
X-6371920Y+6087250D01*
X-6341440Y+6150750D02*
X-6371920Y+6182500D01*
X-6280480Y+6182500D01*
D71*
X-4648400Y+3706000D02*
X-4648531Y+3709158D01*
X-4649597Y+3715476D01*
X-4651828Y+3721794D01*
X-4655473Y+3728112D01*
X-4661048Y+3734351D01*
X-4667366Y+3738947D01*
X-4673684Y+3741880D01*
X-4680002Y+3743542D01*
X-4686320Y+3744100D01*
X-4686500Y+3744100D01*
X-4724600Y+3706000D02*
X-4724469Y+3709158D01*
X-4723403Y+3715476D01*
X-4721172Y+3721794D01*
X-4717527Y+3728112D01*
X-4711952Y+3734351D01*
X-4705634Y+3738947D01*
X-4699316Y+3741880D01*
X-4692998Y+3743542D01*
X-4686680Y+3744100D01*
X-4686500Y+3744100D01*
X-4724600Y+3706000D02*
X-4724469Y+3702842D01*
X-4723403Y+3696524D01*
X-4721172Y+3690206D01*
X-4717527Y+3683888D01*
X-4711952Y+3677649D01*
X-4705634Y+3673053D01*
X-4699316Y+3670120D01*
X-4692998Y+3668458D01*
X-4686680Y+3667900D01*
X-4686500Y+3667900D01*
X-4648400Y+3706000D02*
X-4648531Y+3702842D01*
X-4649597Y+3696524D01*
X-4651828Y+3690206D01*
X-4655473Y+3683888D01*
X-4661048Y+3677649D01*
X-4667366Y+3673053D01*
X-4673684Y+3670120D01*
X-4680002Y+3668458D01*
X-4686320Y+3667900D01*
X-4686500Y+3667900D01*
D20*
X-4369000Y+3337700D02*
X-4369000Y+8900300D01*
X-4623000Y+8900300D01*
X-4623000Y+3337700D01*
X-4369000Y+3337700D01*
D21*
X-4810960Y+5992000D02*
X-4795720Y+5992000D01*
X-4780480Y+6007875D01*
X-4780480Y+6071375D01*
X-4795720Y+6087250D01*
X-4871920Y+6087250D01*
X-4856680Y+6134875D02*
X-4871920Y+6150750D01*
X-4871920Y+6198375D01*
X-4856680Y+6214250D01*
X-4841440Y+6214250D01*
X-4826200Y+6198375D01*
X-4826200Y+6150750D01*
X-4810960Y+6134875D01*
X-4780480Y+6134875D01*
X-4780480Y+6214250D01*
D71*
X-1001400Y+9032000D02*
X-1001531Y+9035158D01*
X-1002597Y+9041476D01*
X-1004828Y+9047794D01*
X-1008473Y+9054112D01*
X-1014048Y+9060351D01*
X-1020366Y+9064947D01*
X-1026684Y+9067880D01*
X-1033002Y+9069542D01*
X-1039320Y+9070100D01*
X-1039500Y+9070100D01*
X-1077600Y+9032000D02*
X-1077469Y+9035158D01*
X-1076403Y+9041476D01*
X-1074172Y+9047794D01*
X-1070527Y+9054112D01*
X-1064952Y+9060351D01*
X-1058634Y+9064947D01*
X-1052316Y+9067880D01*
X-1045998Y+9069542D01*
X-1039680Y+9070100D01*
X-1039500Y+9070100D01*
X-1077600Y+9032000D02*
X-1077469Y+9028842D01*
X-1076403Y+9022524D01*
X-1074172Y+9016206D01*
X-1070527Y+9009888D01*
X-1064952Y+9003649D01*
X-1058634Y+8999053D01*
X-1052316Y+8996120D01*
X-1045998Y+8994458D01*
X-1039680Y+8993900D01*
X-1039500Y+8993900D01*
X-1001400Y+9032000D02*
X-1001531Y+9028842D01*
X-1002597Y+9022524D01*
X-1004828Y+9016206D01*
X-1008473Y+9009888D01*
X-1014048Y+9003649D01*
X-1020366Y+8999053D01*
X-1026684Y+8996120D01*
X-1033002Y+8994458D01*
X-1039320Y+8993900D01*
X-1039500Y+8993900D01*
D20*
X-1357000Y+9400300D02*
X-1357000Y+7393700D01*
X-1103000Y+7393700D01*
X-1103000Y+9400300D01*
X-1357000Y+9400300D01*
D21*
X-884560Y+8206500D02*
X-884560Y+8238250D01*
X-854080Y+8238250D01*
X-854080Y+8174750D01*
X-884560Y+8143000D01*
X-915040Y+8143000D01*
X-945520Y+8174750D01*
X-945520Y+8222375D01*
X-930280Y+8238250D01*
X-869320Y+8270000D02*
X-854080Y+8285875D01*
X-854080Y+8349375D01*
X-869320Y+8365250D01*
X-884560Y+8365250D01*
X-899800Y+8349375D01*
X-899800Y+8285875D01*
X-915040Y+8270000D01*
X-930280Y+8270000D01*
X-945520Y+8285875D01*
X-945520Y+8349375D01*
X-930280Y+8365250D01*
X-854080Y+8397000D02*
X-945520Y+8397000D01*
X-899800Y+8444625D01*
X-945520Y+8492250D01*
X-854080Y+8492250D01*
X-915040Y+8555750D02*
X-945520Y+8587500D01*
X-854080Y+8587500D01*
X-8738000Y+8484000D02*
X-9754000Y+8484000D01*
X-8738000Y+6452000D02*
X-9754000Y+6452000D01*
X-9754000Y+8484000D01*
X-8738000Y+8484000D02*
X-8738000Y+6452000D01*
X-8605920Y+7341000D02*
X-8666880Y+7341000D01*
X-8697360Y+7372750D01*
X-8697360Y+7404500D01*
X-8666880Y+7436250D01*
X-8605920Y+7436250D01*
X-8636400Y+7341000D02*
X-8636400Y+7436250D01*
X-8621160Y+7468000D02*
X-8605920Y+7483875D01*
X-8605920Y+7547375D01*
X-8621160Y+7563250D01*
X-8636400Y+7563250D01*
X-8651640Y+7547375D01*
X-8651640Y+7483875D01*
X-8666880Y+7468000D01*
X-8682120Y+7468000D01*
X-8697360Y+7483875D01*
X-8697360Y+7547375D01*
X-8682120Y+7563250D01*
X-6742000Y+9861000D02*
X-6742000Y+9099000D01*
X-9726500Y+9099000D02*
X-9726500Y+9861000D01*
X-6742000Y+9099000D02*
X-9726500Y+9099000D01*
X-9726500Y+9861000D02*
X-6742000Y+9861000D01*
X-8361250Y+8982160D02*
X-8345375Y+8966920D01*
X-8281875Y+8966920D01*
X-8266000Y+8982160D01*
X-8266000Y+8997400D01*
X-8281875Y+9012640D01*
X-8345375Y+9012640D01*
X-8361250Y+9027880D01*
X-8361250Y+9043120D01*
X-8345375Y+9058360D01*
X-8281875Y+9058360D01*
X-8266000Y+9043120D01*
X-8234250Y+8982160D02*
X-8218375Y+8966920D01*
X-8154875Y+8966920D01*
X-8139000Y+8982160D01*
X-8139000Y+8997400D01*
X-8154875Y+9012640D01*
X-8218375Y+9012640D01*
X-8234250Y+9027880D01*
X-8234250Y+9043120D01*
X-8218375Y+9058360D01*
X-8154875Y+9058360D01*
X-8139000Y+9043120D01*
X-7992000Y+6730000D02*
X-7992827Y+6750483D01*
X-7999545Y+6791450D01*
X-8013563Y+6832417D01*
X-8036341Y+6873384D01*
X-8071141Y+6914229D01*
X-8112108Y+6945845D01*
X-8153075Y+6966392D01*
X-8194042Y+6978629D01*
X-8235009Y+6983762D01*
X-8246000Y+6984000D01*
X-8500000Y+6730000D02*
X-8499173Y+6750483D01*
X-8492455Y+6791450D01*
X-8478437Y+6832417D01*
X-8455659Y+6873384D01*
X-8420859Y+6914229D01*
X-8379892Y+6945845D01*
X-8338925Y+6966392D01*
X-8297958Y+6978629D01*
X-8256991Y+6983762D01*
X-8246000Y+6984000D01*
X-8500000Y+6730000D02*
X-8499173Y+6709517D01*
X-8492455Y+6668550D01*
X-8478437Y+6627583D01*
X-8455659Y+6586616D01*
X-8420859Y+6545771D01*
X-8379892Y+6514155D01*
X-8338925Y+6493608D01*
X-8297958Y+6481371D01*
X-8256991Y+6476238D01*
X-8246000Y+6476000D01*
X-7992000Y+6730000D02*
X-7992827Y+6709517D01*
X-7999545Y+6668550D01*
X-8013563Y+6627583D01*
X-8036341Y+6586616D01*
X-8071141Y+6545771D01*
X-8112108Y+6514155D01*
X-8153075Y+6493608D01*
X-8194042Y+6481371D01*
X-8235009Y+6476238D01*
X-8246000Y+6476000D01*
X-8016500Y+6637100D02*
X-7957600Y+6614300D01*
X-7987600Y+6541000D01*
X-7990700Y+6539900D02*
X-8054800Y+6567800D01*
X-7886480Y+6603000D02*
X-7916960Y+6634750D01*
X-7916960Y+6666500D01*
X-7886480Y+6698250D01*
X-7856000Y+6698250D01*
X-7825520Y+6666500D01*
X-7825520Y+6634750D01*
X-7856000Y+6603000D01*
X-7886480Y+6603000D01*
X-7856000Y+6666500D02*
X-7825520Y+6698250D01*
X-7856000Y+6825250D02*
X-7856000Y+6730000D01*
X-7916960Y+6793500D01*
X-7825520Y+6793500D01*
X-7619000Y+6730000D02*
X-7492000Y+6730000D01*
X-7492000Y+6666500D02*
X-6984000Y+6666500D01*
X-6984000Y+6793500D01*
X-7492000Y+6793500D01*
X-7492000Y+6666500D01*
X-6984000Y+6730000D02*
X-6857000Y+6730000D01*
X-7365000Y+6834140D02*
X-7365000Y+6925580D01*
X-7285625Y+6925580D01*
X-7269750Y+6910340D01*
X-7269750Y+6895100D01*
X-7285625Y+6879860D01*
X-7365000Y+6879860D01*
X-7285625Y+6879860D02*
X-7269750Y+6864620D01*
X-7269750Y+6834140D01*
X-7206250Y+6879860D02*
X-7222125Y+6895100D01*
X-7222125Y+6910340D01*
X-7206250Y+6925580D01*
X-7158625Y+6925580D01*
X-7142750Y+6910340D01*
X-7142750Y+6895100D01*
X-7158625Y+6879860D01*
X-7206250Y+6879860D01*
X-7222125Y+6864620D01*
X-7222125Y+6849380D01*
X-7206250Y+6834140D01*
X-7158625Y+6834140D01*
X-7142750Y+6849380D01*
X-7142750Y+6864620D01*
X-7158625Y+6879860D01*
X-8738000Y+6234000D02*
X-9754000Y+6234000D01*
X-8738000Y+4202000D02*
X-9754000Y+4202000D01*
X-9754000Y+6234000D01*
X-8738000Y+6234000D02*
X-8738000Y+4202000D01*
X-8621160Y+5027500D02*
X-8605920Y+5043375D01*
X-8605920Y+5106875D01*
X-8621160Y+5122750D01*
X-8636400Y+5122750D01*
X-8651640Y+5106875D01*
X-8651640Y+5043375D01*
X-8666880Y+5027500D01*
X-8682120Y+5027500D01*
X-8697360Y+5043375D01*
X-8697360Y+5106875D01*
X-8682120Y+5122750D01*
X-8621160Y+5154500D02*
X-8605920Y+5170375D01*
X-8605920Y+5233875D01*
X-8621160Y+5249750D01*
X-8636400Y+5249750D01*
X-8651640Y+5233875D01*
X-8651640Y+5170375D01*
X-8666880Y+5154500D01*
X-8682120Y+5154500D01*
X-8697360Y+5170375D01*
X-8697360Y+5233875D01*
X-8682120Y+5249750D01*
X-8666880Y+5313250D02*
X-8697360Y+5345000D01*
X-8605920Y+5345000D01*
X-7619000Y+4980000D02*
X-7492000Y+4980000D01*
X-7492000Y+4916500D02*
X-6984000Y+4916500D01*
X-6984000Y+5043500D01*
X-7492000Y+5043500D01*
X-7492000Y+4916500D01*
X-6984000Y+4980000D02*
X-6857000Y+4980000D01*
X-7365000Y+5084140D02*
X-7365000Y+5175580D01*
X-7285625Y+5175580D01*
X-7269750Y+5160340D01*
X-7269750Y+5145100D01*
X-7285625Y+5129860D01*
X-7365000Y+5129860D01*
X-7285625Y+5129860D02*
X-7269750Y+5114620D01*
X-7269750Y+5084140D01*
X-7142750Y+5175580D02*
X-7222125Y+5175580D01*
X-7222125Y+5145100D01*
X-7158625Y+5145100D01*
X-7142750Y+5129860D01*
X-7142750Y+5099380D01*
X-7158625Y+5084140D01*
X-7206250Y+5084140D01*
X-7222125Y+5099380D01*
X-7992000Y+4480000D02*
X-7992827Y+4500483D01*
X-7999545Y+4541450D01*
X-8013563Y+4582417D01*
X-8036341Y+4623384D01*
X-8071141Y+4664229D01*
X-8112108Y+4695845D01*
X-8153075Y+4716392D01*
X-8194042Y+4728629D01*
X-8235009Y+4733762D01*
X-8246000Y+4734000D01*
X-8500000Y+4480000D02*
X-8499173Y+4500483D01*
X-8492455Y+4541450D01*
X-8478437Y+4582417D01*
X-8455659Y+4623384D01*
X-8420859Y+4664229D01*
X-8379892Y+4695845D01*
X-8338925Y+4716392D01*
X-8297958Y+4728629D01*
X-8256991Y+4733762D01*
X-8246000Y+4734000D01*
X-8500000Y+4480000D02*
X-8499173Y+4459517D01*
X-8492455Y+4418550D01*
X-8478437Y+4377583D01*
X-8455659Y+4336616D01*
X-8420859Y+4295771D01*
X-8379892Y+4264155D01*
X-8338925Y+4243608D01*
X-8297958Y+4231371D01*
X-8256991Y+4226238D01*
X-8246000Y+4226000D01*
X-7992000Y+4480000D02*
X-7992827Y+4459517D01*
X-7999545Y+4418550D01*
X-8013563Y+4377583D01*
X-8036341Y+4336616D01*
X-8071141Y+4295771D01*
X-8112108Y+4264155D01*
X-8153075Y+4243608D01*
X-8194042Y+4231371D01*
X-8235009Y+4226238D01*
X-8246000Y+4226000D01*
X-8016500Y+4387100D02*
X-7957600Y+4364300D01*
X-7987600Y+4291000D01*
X-7990700Y+4289900D02*
X-8054800Y+4317800D01*
X-7886480Y+4353000D02*
X-7916960Y+4384750D01*
X-7916960Y+4416500D01*
X-7886480Y+4448250D01*
X-7856000Y+4448250D01*
X-7825520Y+4416500D01*
X-7825520Y+4384750D01*
X-7856000Y+4353000D01*
X-7886480Y+4353000D01*
X-7856000Y+4416500D02*
X-7825520Y+4448250D01*
X-7886480Y+4511750D02*
X-7916960Y+4543500D01*
X-7825520Y+4543500D01*
X+258000Y-278000D02*
X+258000Y+738000D01*
X-758000Y-278000D02*
X-758000Y+738000D01*
X+258000Y+738000D02*
X-758000Y+738000D01*
X+258000Y-278000D02*
X-758000Y-278000D01*
X-377000Y-410080D02*
X-377000Y-318640D01*
X-297625Y-318640D01*
X-281750Y-333880D01*
X-281750Y-349120D01*
X-297625Y-364360D01*
X-377000Y-364360D01*
X-250000Y-394840D02*
X-234125Y-410080D01*
X-170625Y-410080D01*
X-154750Y-394840D01*
X-154750Y-379600D01*
X-170625Y-364360D01*
X-234125Y-364360D01*
X-250000Y-349120D01*
X-250000Y-333880D01*
X-234125Y-318640D01*
X-170625Y-318640D01*
X-154750Y-333880D01*
X-2627000Y+6353000D02*
X-1865000Y+6353000D01*
X-1865000Y+6607000D01*
X-2627000Y+6607000D01*
X-2627000Y+6353000D01*
X-2627000Y+6607000D02*
X-2627000Y+6734000D01*
X-1865000Y+6734000D01*
X-1865000Y+6607000D01*
X-2627000Y+6607000D02*
X-2500000Y+6734000D01*
X-2500000Y+6607000D02*
X-2373000Y+6734000D01*
X-2373000Y+6607000D02*
X-2246000Y+6734000D01*
X-2246000Y+6607000D02*
X-2119000Y+6734000D01*
X-2119000Y+6607000D02*
X-1992000Y+6734000D01*
X-1992000Y+6607000D02*
X-1865000Y+6734000D01*
X-2373000Y+6866080D02*
X-2373000Y+6789880D01*
X-2357125Y+6774640D01*
X-2293625Y+6774640D01*
X-2277750Y+6789880D01*
X-2277750Y+6866080D01*
X-2214250Y+6835600D02*
X-2182500Y+6866080D01*
X-2182500Y+6774640D01*
X-2627000Y+4603000D02*
X-1865000Y+4603000D01*
X-1865000Y+4857000D01*
X-2627000Y+4857000D01*
X-2627000Y+4603000D01*
X-2627000Y+4857000D02*
X-2627000Y+4984000D01*
X-1865000Y+4984000D01*
X-1865000Y+4857000D01*
X-2627000Y+4857000D02*
X-2500000Y+4984000D01*
X-2500000Y+4857000D02*
X-2373000Y+4984000D01*
X-2373000Y+4857000D02*
X-2246000Y+4984000D01*
X-2246000Y+4857000D02*
X-2119000Y+4984000D01*
X-2119000Y+4857000D02*
X-1992000Y+4984000D01*
X-1992000Y+4857000D02*
X-1865000Y+4984000D01*
X-2373000Y+5116080D02*
X-2373000Y+5039880D01*
X-2357125Y+5024640D01*
X-2293625Y+5024640D01*
X-2277750Y+5039880D01*
X-2277750Y+5116080D01*
X-2230125Y+5100840D02*
X-2214250Y+5116080D01*
X-2166625Y+5116080D01*
X-2150750Y+5100840D01*
X-2150750Y+5085600D01*
X-2166625Y+5070360D01*
X-2214250Y+5070360D01*
X-2230125Y+5055120D01*
X-2230125Y+5024640D01*
X-2150750Y+5024640D01*
X-2627000Y+3103000D02*
X-1865000Y+3103000D01*
X-1865000Y+3357000D01*
X-2627000Y+3357000D01*
X-2627000Y+3103000D01*
X-2627000Y+3357000D02*
X-2627000Y+3484000D01*
X-1865000Y+3484000D01*
X-1865000Y+3357000D01*
X-2627000Y+3357000D02*
X-2500000Y+3484000D01*
X-2500000Y+3357000D02*
X-2373000Y+3484000D01*
X-2373000Y+3357000D02*
X-2246000Y+3484000D01*
X-2246000Y+3357000D02*
X-2119000Y+3484000D01*
X-2119000Y+3357000D02*
X-1992000Y+3484000D01*
X-1992000Y+3357000D02*
X-1865000Y+3484000D01*
X-2373000Y+3616080D02*
X-2373000Y+3539880D01*
X-2357125Y+3524640D01*
X-2293625Y+3524640D01*
X-2277750Y+3539880D01*
X-2277750Y+3616080D01*
X-2230125Y+3600840D02*
X-2214250Y+3616080D01*
X-2166625Y+3616080D01*
X-2150750Y+3600840D01*
X-2150750Y+3585600D01*
X-2166625Y+3570360D01*
X-2150750Y+3555120D01*
X-2150750Y+3539880D01*
X-2166625Y+3524640D01*
X-2214250Y+3524640D01*
X-2230125Y+3539880D01*
X-2198375Y+3570360D02*
X-2166625Y+3570360D01*
X-5123000Y+1349000D02*
X-4869000Y+1349000D01*
X-4869000Y+2111000D01*
X-5123000Y+2111000D01*
X-5123000Y+1349000D01*
X-5250000Y+1349000D01*
X-5250000Y+2111000D01*
X-5123000Y+2111000D01*
X-5123000Y+1349000D02*
X-5250000Y+1476000D01*
X-5123000Y+1476000D02*
X-5250000Y+1603000D01*
X-5123000Y+1603000D02*
X-5250000Y+1730000D01*
X-5123000Y+1730000D02*
X-5250000Y+1857000D01*
X-5123000Y+1857000D02*
X-5250000Y+1984000D01*
X-5123000Y+1984000D02*
X-5250000Y+2111000D01*
X-5382080Y+1603000D02*
X-5305880Y+1603000D01*
X-5290640Y+1618875D01*
X-5290640Y+1682375D01*
X-5305880Y+1698250D01*
X-5382080Y+1698250D01*
X-5321120Y+1825250D02*
X-5321120Y+1730000D01*
X-5382080Y+1793500D01*
X-5290640Y+1793500D01*
X-2873000Y+1349000D02*
X-2619000Y+1349000D01*
X-2619000Y+2111000D01*
X-2873000Y+2111000D01*
X-2873000Y+1349000D01*
X-3000000Y+1349000D01*
X-3000000Y+2111000D01*
X-2873000Y+2111000D01*
X-2873000Y+1349000D02*
X-3000000Y+1476000D01*
X-2873000Y+1476000D02*
X-3000000Y+1603000D01*
X-2873000Y+1603000D02*
X-3000000Y+1730000D01*
X-2873000Y+1730000D02*
X-3000000Y+1857000D01*
X-2873000Y+1857000D02*
X-3000000Y+1984000D01*
X-2873000Y+1984000D02*
X-3000000Y+2111000D01*
X-3132080Y+1603000D02*
X-3055880Y+1603000D01*
X-3040640Y+1618875D01*
X-3040640Y+1682375D01*
X-3055880Y+1698250D01*
X-3132080Y+1698250D01*
X-3132080Y+1825250D02*
X-3132080Y+1745875D01*
X-3101600Y+1745875D01*
X-3101600Y+1809375D01*
X-3086360Y+1825250D01*
X-3055880Y+1825250D01*
X-3040640Y+1809375D01*
X-3040640Y+1761750D01*
X-3055880Y+1745875D01*
X-1119000Y+230000D02*
X-1119827Y+250483D01*
X-1126545Y+291450D01*
X-1140563Y+332417D01*
X-1163341Y+373384D01*
X-1198141Y+414229D01*
X-1239108Y+445845D01*
X-1280075Y+466392D01*
X-1321042Y+478629D01*
X-1362009Y+483762D01*
X-1373000Y+484000D01*
X-1627000Y+230000D02*
X-1626173Y+250483D01*
X-1619455Y+291450D01*
X-1605437Y+332417D01*
X-1582659Y+373384D01*
X-1547859Y+414229D01*
X-1506892Y+445845D01*
X-1465925Y+466392D01*
X-1424958Y+478629D01*
X-1383991Y+483762D01*
X-1373000Y+484000D01*
X-1627000Y+230000D02*
X-1626173Y+209517D01*
X-1619455Y+168550D01*
X-1605437Y+127583D01*
X-1582659Y+86616D01*
X-1547859Y+45771D01*
X-1506892Y+14155D01*
X-1465925Y-6392D01*
X-1424958Y-18629D01*
X-1383991Y-23762D01*
X-1373000Y-24000D01*
X-1119000Y+230000D02*
X-1119827Y+209517D01*
X-1126545Y+168550D01*
X-1140563Y+127583D01*
X-1163341Y+86616D01*
X-1198141Y+45771D01*
X-1239108Y+14155D01*
X-1280075Y-6392D01*
X-1321042Y-18629D01*
X-1362009Y-23762D01*
X-1373000Y-24000D01*
X-1690500Y+484000D02*
X-1563500Y+484000D01*
X-1627000Y+547500D02*
X-1627000Y+420500D01*
X-1563500Y+649100D02*
X-1531750Y+679580D01*
X-1531750Y+588140D01*
X-1452375Y+664340D02*
X-1436500Y+679580D01*
X-1388875Y+679580D01*
X-1373000Y+664340D01*
X-1373000Y+649100D01*
X-1388875Y+633860D01*
X-1436500Y+633860D01*
X-1452375Y+618620D01*
X-1452375Y+588140D01*
X-1373000Y+588140D01*
X-1341250Y+679580D02*
X-1341250Y+633860D01*
X-1293625Y+588140D01*
X-1246000Y+633860D01*
X-1246000Y+679580D01*
X-2365000Y+230000D02*
X-2365827Y+250483D01*
X-2372545Y+291450D01*
X-2386563Y+332417D01*
X-2409341Y+373384D01*
X-2444141Y+414229D01*
X-2485108Y+445845D01*
X-2526075Y+466392D01*
X-2567042Y+478629D01*
X-2608009Y+483762D01*
X-2619000Y+484000D01*
X-2873000Y+230000D02*
X-2872173Y+250483D01*
X-2865455Y+291450D01*
X-2851437Y+332417D01*
X-2828659Y+373384D01*
X-2793859Y+414229D01*
X-2752892Y+445845D01*
X-2711925Y+466392D01*
X-2670958Y+478629D01*
X-2629991Y+483762D01*
X-2619000Y+484000D01*
X-2873000Y+230000D02*
X-2872173Y+209517D01*
X-2865455Y+168550D01*
X-2851437Y+127583D01*
X-2828659Y+86616D01*
X-2793859Y+45771D01*
X-2752892Y+14155D01*
X-2711925Y-6392D01*
X-2670958Y-18629D01*
X-2629991Y-23762D01*
X-2619000Y-24000D01*
X-2365000Y+230000D02*
X-2365827Y+209517D01*
X-2372545Y+168550D01*
X-2386563Y+127583D01*
X-2409341Y+86616D01*
X-2444141Y+45771D01*
X-2485108Y+14155D01*
X-2526075Y-6392D01*
X-2567042Y-18629D01*
X-2608009Y-23762D01*
X-2619000Y-24000D01*
X-2936500Y+484000D02*
X-2809500Y+484000D01*
X-2873000Y+547500D02*
X-2873000Y+420500D01*
X-2682500Y+679580D02*
X-2761875Y+679580D01*
X-2761875Y+649100D01*
X-2698375Y+649100D01*
X-2682500Y+633860D01*
X-2682500Y+603380D01*
X-2698375Y+588140D01*
X-2746000Y+588140D01*
X-2761875Y+603380D01*
X-2650750Y+679580D02*
X-2650750Y+633860D01*
X-2603125Y+588140D01*
X-2555500Y+633860D01*
X-2555500Y+679580D01*
X-3458890Y+2053464D02*
X-3458890Y+1926464D01*
X-3522390Y+1418464D02*
X-3395390Y+1418464D01*
X-3395390Y+1926464D01*
X-3522390Y+1926464D01*
X-3522390Y+1418464D01*
X-3458890Y+1418464D02*
X-3458890Y+1291464D01*
X-3263310Y+1481964D02*
X-3354750Y+1481964D01*
X-3354750Y+1561339D01*
X-3339510Y+1577214D01*
X-3324270Y+1577214D01*
X-3309030Y+1561339D01*
X-3309030Y+1481964D01*
X-3309030Y+1561339D02*
X-3293790Y+1577214D01*
X-3263310Y+1577214D01*
X-3263310Y+1608964D02*
X-3354750Y+1608964D01*
X-3354750Y+1688339D01*
X-3339510Y+1704214D01*
X-3324270Y+1704214D01*
X-3309030Y+1688339D01*
X-3309030Y+1608964D01*
X-3309030Y+1688339D02*
X-3293790Y+1704214D01*
X-3263310Y+1704214D01*
X-3324270Y+1767714D02*
X-3354750Y+1799464D01*
X-3263310Y+1799464D01*
X-373000Y+980000D02*
X-500000Y+980000D01*
X-1008000Y+916500D02*
X-500000Y+916500D01*
X-500000Y+1043500D01*
X-1008000Y+1043500D01*
X-1008000Y+916500D01*
X-1008000Y+980000D02*
X-1135000Y+980000D01*
X-944500Y+784420D02*
X-944500Y+875860D01*
X-865125Y+875860D01*
X-849250Y+860620D01*
X-849250Y+845380D01*
X-865125Y+830140D01*
X-944500Y+830140D01*
X-865125Y+830140D02*
X-849250Y+814900D01*
X-849250Y+784420D01*
X-817500Y+784420D02*
X-817500Y+875860D01*
X-738125Y+875860D01*
X-722250Y+860620D01*
X-722250Y+845380D01*
X-738125Y+830140D01*
X-817500Y+830140D01*
X-738125Y+830140D02*
X-722250Y+814900D01*
X-722250Y+784420D01*
X-674625Y+860620D02*
X-658750Y+875860D01*
X-611125Y+875860D01*
X-595250Y+860620D01*
X-595250Y+845380D01*
X-611125Y+830140D01*
X-658750Y+830140D01*
X-674625Y+814900D01*
X-674625Y+784420D01*
X-595250Y+784420D01*
X-8738000Y+3984000D02*
X-9754000Y+3984000D01*
X-8738000Y+1952000D02*
X-9754000Y+1952000D01*
X-9754000Y+3984000D01*
X-8738000Y+3984000D02*
X-8738000Y+1952000D01*
X-8621160Y+2777500D02*
X-8605920Y+2793375D01*
X-8605920Y+2856875D01*
X-8621160Y+2872750D01*
X-8636400Y+2872750D01*
X-8651640Y+2856875D01*
X-8651640Y+2793375D01*
X-8666880Y+2777500D01*
X-8682120Y+2777500D01*
X-8697360Y+2793375D01*
X-8697360Y+2856875D01*
X-8682120Y+2872750D01*
X-8621160Y+2904500D02*
X-8605920Y+2920375D01*
X-8605920Y+2983875D01*
X-8621160Y+2999750D01*
X-8636400Y+2999750D01*
X-8651640Y+2983875D01*
X-8651640Y+2920375D01*
X-8666880Y+2904500D01*
X-8682120Y+2904500D01*
X-8697360Y+2920375D01*
X-8697360Y+2983875D01*
X-8682120Y+2999750D01*
X-8682120Y+3047375D02*
X-8697360Y+3063250D01*
X-8697360Y+3110875D01*
X-8682120Y+3126750D01*
X-8666880Y+3126750D01*
X-8651640Y+3110875D01*
X-8651640Y+3063250D01*
X-8636400Y+3047375D01*
X-8605920Y+3047375D01*
X-8605920Y+3126750D01*
X-7992000Y+2230000D02*
X-7992827Y+2250483D01*
X-7999545Y+2291450D01*
X-8013563Y+2332417D01*
X-8036341Y+2373384D01*
X-8071141Y+2414229D01*
X-8112108Y+2445845D01*
X-8153075Y+2466392D01*
X-8194042Y+2478629D01*
X-8235009Y+2483762D01*
X-8246000Y+2484000D01*
X-8500000Y+2230000D02*
X-8499173Y+2250483D01*
X-8492455Y+2291450D01*
X-8478437Y+2332417D01*
X-8455659Y+2373384D01*
X-8420859Y+2414229D01*
X-8379892Y+2445845D01*
X-8338925Y+2466392D01*
X-8297958Y+2478629D01*
X-8256991Y+2483762D01*
X-8246000Y+2484000D01*
X-8500000Y+2230000D02*
X-8499173Y+2209517D01*
X-8492455Y+2168550D01*
X-8478437Y+2127583D01*
X-8455659Y+2086616D01*
X-8420859Y+2045771D01*
X-8379892Y+2014155D01*
X-8338925Y+1993608D01*
X-8297958Y+1981371D01*
X-8256991Y+1976238D01*
X-8246000Y+1976000D01*
X-7992000Y+2230000D02*
X-7992827Y+2209517D01*
X-7999545Y+2168550D01*
X-8013563Y+2127583D01*
X-8036341Y+2086616D01*
X-8071141Y+2045771D01*
X-8112108Y+2014155D01*
X-8153075Y+1993608D01*
X-8194042Y+1981371D01*
X-8235009Y+1976238D01*
X-8246000Y+1976000D01*
X-8016500Y+2137100D02*
X-7957600Y+2114300D01*
X-7987600Y+2041000D01*
X-7990700Y+2039900D02*
X-8054800Y+2067800D01*
X-7886480Y+2103000D02*
X-7916960Y+2134750D01*
X-7916960Y+2166500D01*
X-7886480Y+2198250D01*
X-7856000Y+2198250D01*
X-7825520Y+2166500D01*
X-7825520Y+2134750D01*
X-7856000Y+2103000D01*
X-7886480Y+2103000D01*
X-7856000Y+2166500D02*
X-7825520Y+2198250D01*
X-7901720Y+2245875D02*
X-7916960Y+2261750D01*
X-7916960Y+2309375D01*
X-7901720Y+2325250D01*
X-7886480Y+2325250D01*
X-7871240Y+2309375D01*
X-7871240Y+2261750D01*
X-7856000Y+2245875D01*
X-7825520Y+2245875D01*
X-7825520Y+2325250D01*
X-7619000Y+2230000D02*
X-7492000Y+2230000D01*
X-7492000Y+2166500D02*
X-6984000Y+2166500D01*
X-6984000Y+2293500D01*
X-7492000Y+2293500D01*
X-7492000Y+2166500D01*
X-6984000Y+2230000D02*
X-6857000Y+2230000D01*
X-7365000Y+2334140D02*
X-7365000Y+2425580D01*
X-7285625Y+2425580D01*
X-7269750Y+2410340D01*
X-7269750Y+2395100D01*
X-7285625Y+2379860D01*
X-7365000Y+2379860D01*
X-7285625Y+2379860D02*
X-7269750Y+2364620D01*
X-7269750Y+2334140D01*
X-7142750Y+2410340D02*
X-7158625Y+2425580D01*
X-7206250Y+2425580D01*
X-7222125Y+2410340D01*
X-7222125Y+2349380D01*
X-7206250Y+2334140D01*
X-7158625Y+2334140D01*
X-7142750Y+2349380D01*
X-7142750Y+2364620D01*
X-7158625Y+2379860D01*
X-7222125Y+2379860D01*
X-8738000Y+1734000D02*
X-9754000Y+1734000D01*
X-8738000Y-298000D02*
X-9754000Y-298000D01*
X-9754000Y+1734000D01*
X-8738000Y+1734000D02*
X-8738000Y-298000D01*
X-8621160Y+527500D02*
X-8605920Y+543375D01*
X-8605920Y+606875D01*
X-8621160Y+622750D01*
X-8636400Y+622750D01*
X-8651640Y+606875D01*
X-8651640Y+543375D01*
X-8666880Y+527500D01*
X-8682120Y+527500D01*
X-8697360Y+543375D01*
X-8697360Y+606875D01*
X-8682120Y+622750D01*
X-8621160Y+654500D02*
X-8605920Y+670375D01*
X-8605920Y+733875D01*
X-8621160Y+749750D01*
X-8636400Y+749750D01*
X-8651640Y+733875D01*
X-8651640Y+670375D01*
X-8666880Y+654500D01*
X-8682120Y+654500D01*
X-8697360Y+670375D01*
X-8697360Y+733875D01*
X-8682120Y+749750D01*
X-8682120Y+797375D02*
X-8697360Y+813250D01*
X-8697360Y+860875D01*
X-8682120Y+876750D01*
X-8666880Y+876750D01*
X-8651640Y+860875D01*
X-8636400Y+876750D01*
X-8621160Y+876750D01*
X-8605920Y+860875D01*
X-8605920Y+813250D01*
X-8621160Y+797375D01*
X-8651640Y+829125D02*
X-8651640Y+860875D01*
X-7992000Y-20000D02*
X-7992827Y+483D01*
X-7999545Y+41450D01*
X-8013563Y+82417D01*
X-8036341Y+123384D01*
X-8071141Y+164229D01*
X-8112108Y+195845D01*
X-8153075Y+216392D01*
X-8194042Y+228629D01*
X-8235009Y+233762D01*
X-8246000Y+234000D01*
X-8500000Y-20000D02*
X-8499173Y+483D01*
X-8492455Y+41450D01*
X-8478437Y+82417D01*
X-8455659Y+123384D01*
X-8420859Y+164229D01*
X-8379892Y+195845D01*
X-8338925Y+216392D01*
X-8297958Y+228629D01*
X-8256991Y+233762D01*
X-8246000Y+234000D01*
X-8500000Y-20000D02*
X-8499173Y-40483D01*
X-8492455Y-81450D01*
X-8478437Y-122417D01*
X-8455659Y-163384D01*
X-8420859Y-204229D01*
X-8379892Y-235845D01*
X-8338925Y-256392D01*
X-8297958Y-268629D01*
X-8256991Y-273762D01*
X-8246000Y-274000D01*
X-7992000Y-20000D02*
X-7992827Y-40483D01*
X-7999545Y-81450D01*
X-8013563Y-122417D01*
X-8036341Y-163384D01*
X-8071141Y-204229D01*
X-8112108Y-235845D01*
X-8153075Y-256392D01*
X-8194042Y-268629D01*
X-8235009Y-273762D01*
X-8246000Y-274000D01*
X-8016500Y-112900D02*
X-7957600Y-135700D01*
X-7987600Y-209000D01*
X-7990700Y-210100D02*
X-8054800Y-182200D01*
X-7886480Y-147000D02*
X-7916960Y-115250D01*
X-7916960Y-83500D01*
X-7886480Y-51750D01*
X-7856000Y-51750D01*
X-7825520Y-83500D01*
X-7825520Y-115250D01*
X-7856000Y-147000D01*
X-7886480Y-147000D01*
X-7856000Y-83500D02*
X-7825520Y-51750D01*
X-7901720Y-4125D02*
X-7916960Y+11750D01*
X-7916960Y+59375D01*
X-7901720Y+75250D01*
X-7886480Y+75250D01*
X-7871240Y+59375D01*
X-7856000Y+75250D01*
X-7840760Y+75250D01*
X-7825520Y+59375D01*
X-7825520Y+11750D01*
X-7840760Y-4125D01*
X-7871240Y+27625D02*
X-7871240Y+59375D01*
X-7619000Y-20000D02*
X-7492000Y-20000D01*
X-7492000Y-83500D02*
X-6984000Y-83500D01*
X-6984000Y+43500D01*
X-7492000Y+43500D01*
X-7492000Y-83500D01*
X-6984000Y-20000D02*
X-6857000Y-20000D01*
X-7365000Y+84140D02*
X-7365000Y+175580D01*
X-7285625Y+175580D01*
X-7269750Y+160340D01*
X-7269750Y+145100D01*
X-7285625Y+129860D01*
X-7365000Y+129860D01*
X-7285625Y+129860D02*
X-7269750Y+114620D01*
X-7269750Y+84140D01*
X-7222125Y+175580D02*
X-7142750Y+175580D01*
X-7142750Y+160340D01*
X-7222125Y+84140D01*
X-2373000Y+5730000D02*
X-2500000Y+5730000D01*
X-3008000Y+5666500D02*
X-2500000Y+5666500D01*
X-2500000Y+5793500D01*
X-3008000Y+5793500D01*
X-3008000Y+5666500D01*
X-3008000Y+5730000D02*
X-3135000Y+5730000D01*
X-2881000Y+5534420D02*
X-2881000Y+5625860D01*
X-2801625Y+5625860D01*
X-2785750Y+5610620D01*
X-2785750Y+5595380D01*
X-2801625Y+5580140D01*
X-2881000Y+5580140D01*
X-2801625Y+5580140D02*
X-2785750Y+5564900D01*
X-2785750Y+5534420D01*
X-2722250Y+5595380D02*
X-2690500Y+5625860D01*
X-2690500Y+5534420D01*
X-3246000Y+5103000D02*
X-3246000Y+4976000D01*
X-3309500Y+4468000D02*
X-3182500Y+4468000D01*
X-3182500Y+4976000D01*
X-3309500Y+4976000D01*
X-3309500Y+4468000D01*
X-3246000Y+4468000D02*
X-3246000Y+4341000D01*
X-3050420Y+4595000D02*
X-3141860Y+4595000D01*
X-3141860Y+4674375D01*
X-3126620Y+4690250D01*
X-3111380Y+4690250D01*
X-3096140Y+4674375D01*
X-3096140Y+4595000D01*
X-3096140Y+4674375D02*
X-3080900Y+4690250D01*
X-3050420Y+4690250D01*
X-3126620Y+4737875D02*
X-3141860Y+4753750D01*
X-3141860Y+4801375D01*
X-3126620Y+4817250D01*
X-3111380Y+4817250D01*
X-3096140Y+4801375D01*
X-3096140Y+4753750D01*
X-3080900Y+4737875D01*
X-3050420Y+4737875D01*
X-3050420Y+4817250D01*
X-2873000Y+2730000D02*
X-3000000Y+2730000D01*
X-3508000Y+2666500D02*
X-3000000Y+2666500D01*
X-3000000Y+2793500D01*
X-3508000Y+2793500D01*
X-3508000Y+2666500D01*
X-3508000Y+2730000D02*
X-3635000Y+2730000D01*
X-3381000Y+2534420D02*
X-3381000Y+2625860D01*
X-3301625Y+2625860D01*
X-3285750Y+2610620D01*
X-3285750Y+2595380D01*
X-3301625Y+2580140D01*
X-3381000Y+2580140D01*
X-3301625Y+2580140D02*
X-3285750Y+2564900D01*
X-3285750Y+2534420D01*
X-3238125Y+2610620D02*
X-3222250Y+2625860D01*
X-3174625Y+2625860D01*
X-3158750Y+2610620D01*
X-3158750Y+2595380D01*
X-3174625Y+2580140D01*
X-3158750Y+2564900D01*
X-3158750Y+2549660D01*
X-3174625Y+2534420D01*
X-3222250Y+2534420D01*
X-3238125Y+2549660D01*
X-3206375Y+2580140D02*
X-3174625Y+2580140D01*
X-3619000Y+2480000D02*
X-3492000Y+2480000D01*
X-3492000Y+2416500D02*
X-2984000Y+2416500D01*
X-2984000Y+2543500D01*
X-3492000Y+2543500D01*
X-3492000Y+2416500D01*
X-2984000Y+2480000D02*
X-2857000Y+2480000D01*
X-3365000Y+2584140D02*
X-3365000Y+2675580D01*
X-3285625Y+2675580D01*
X-3269750Y+2660340D01*
X-3269750Y+2645100D01*
X-3285625Y+2629860D01*
X-3365000Y+2629860D01*
X-3285625Y+2629860D02*
X-3269750Y+2614620D01*
X-3269750Y+2584140D01*
X-3142750Y+2614620D02*
X-3238000Y+2614620D01*
X-3174500Y+2675580D01*
X-3174500Y+2584140D01*
X-4492000Y-278000D02*
X-4492000Y+738000D01*
X-5508000Y-278000D02*
X-5508000Y+738000D01*
X-4492000Y+738000D02*
X-5508000Y+738000D01*
X-4492000Y-278000D02*
X-5508000Y-278000D01*
X-5127000Y-394840D02*
X-5111125Y-410080D01*
X-5047625Y-410080D01*
X-5031750Y-394840D01*
X-5031750Y-379600D01*
X-5047625Y-364360D01*
X-5111125Y-364360D01*
X-5127000Y-349120D01*
X-5127000Y-333880D01*
X-5111125Y-318640D01*
X-5047625Y-318640D01*
X-5031750Y-333880D01*
X-5000000Y-318640D02*
X-5000000Y-410080D01*
X-4952375Y-364360D01*
X-4904750Y-410080D01*
X-4904750Y-318640D01*
X-754000Y+4726000D02*
X+262000Y+4726000D01*
X-754000Y+6758000D02*
X+262000Y+6758000D01*
X+262000Y+4726000D01*
X-754000Y+4726000D02*
X-754000Y+6758000D01*
X-886080Y+5615000D02*
X-794640Y+5615000D01*
X-840360Y+5662625D01*
X-794640Y+5710250D01*
X-886080Y+5710250D01*
X-794640Y+5742000D02*
X-886080Y+5742000D01*
X-886080Y+5805500D01*
X-855600Y+5837250D01*
X-825120Y+5837250D01*
X-794640Y+5805500D01*
X-794640Y+5742000D01*
X-754000Y+2976000D02*
X+262000Y+2976000D01*
X-754000Y+4500000D02*
X+262000Y+4500000D01*
X+262000Y+2976000D02*
X+262000Y+4500000D01*
X-754000Y+4500000D02*
X-754000Y+2976000D01*
X-886080Y+3611000D02*
X-794640Y+3611000D01*
X-840360Y+3658625D01*
X-794640Y+3706250D01*
X-886080Y+3706250D01*
X-809880Y+3738000D02*
X-794640Y+3753875D01*
X-794640Y+3817375D01*
X-809880Y+3833250D01*
X-825120Y+3833250D01*
X-840360Y+3817375D01*
X-840360Y+3753875D01*
X-855600Y+3738000D01*
X-870840Y+3738000D01*
X-886080Y+3753875D01*
X-886080Y+3817375D01*
X-870840Y+3833250D01*
X-3615000Y+230000D02*
X-3615827Y+250483D01*
X-3622545Y+291450D01*
X-3636563Y+332417D01*
X-3659341Y+373384D01*
X-3694141Y+414229D01*
X-3735108Y+445845D01*
X-3776075Y+466392D01*
X-3817042Y+478629D01*
X-3858009Y+483762D01*
X-3869000Y+484000D01*
X-4123000Y+230000D02*
X-4122173Y+250483D01*
X-4115455Y+291450D01*
X-4101437Y+332417D01*
X-4078659Y+373384D01*
X-4043859Y+414229D01*
X-4002892Y+445845D01*
X-3961925Y+466392D01*
X-3920958Y+478629D01*
X-3879991Y+483762D01*
X-3869000Y+484000D01*
X-4123000Y+230000D02*
X-4122173Y+209517D01*
X-4115455Y+168550D01*
X-4101437Y+127583D01*
X-4078659Y+86616D01*
X-4043859Y+45771D01*
X-4002892Y+14155D01*
X-3961925Y-6392D01*
X-3920958Y-18629D01*
X-3879991Y-23762D01*
X-3869000Y-24000D01*
X-3615000Y+230000D02*
X-3615827Y+209517D01*
X-3622545Y+168550D01*
X-3636563Y+127583D01*
X-3659341Y+86616D01*
X-3694141Y+45771D01*
X-3735108Y+14155D01*
X-3776075Y-6392D01*
X-3817042Y-18629D01*
X-3858009Y-23762D01*
X-3869000Y-24000D01*
X-4186500Y+484000D02*
X-4059500Y+484000D01*
X-4123000Y+547500D02*
X-4123000Y+420500D01*
X-3932500Y+618620D02*
X-4027750Y+618620D01*
X-3964250Y+679580D01*
X-3964250Y+588140D01*
X-3900750Y+679580D02*
X-3900750Y+633860D01*
X-3853125Y+588140D01*
X-3805500Y+633860D01*
X-3805500Y+679580D01*
X-3996000Y+2103000D02*
X-3996000Y+1976000D01*
X-4059500Y+1468000D02*
X-3932500Y+1468000D01*
X-3932500Y+1976000D01*
X-4059500Y+1976000D01*
X-4059500Y+1468000D01*
X-3996000Y+1468000D02*
X-3996000Y+1341000D01*
X-3800420Y+1531500D02*
X-3891860Y+1531500D01*
X-3891860Y+1610875D01*
X-3876620Y+1626750D01*
X-3861380Y+1626750D01*
X-3846140Y+1610875D01*
X-3846140Y+1531500D01*
X-3846140Y+1610875D02*
X-3830900Y+1626750D01*
X-3800420Y+1626750D01*
X-3800420Y+1658500D02*
X-3891860Y+1658500D01*
X-3891860Y+1737875D01*
X-3876620Y+1753750D01*
X-3861380Y+1753750D01*
X-3846140Y+1737875D01*
X-3846140Y+1658500D01*
X-3846140Y+1737875D02*
X-3830900Y+1753750D01*
X-3800420Y+1753750D01*
X-3876620Y+1801375D02*
X-3891860Y+1817250D01*
X-3891860Y+1864875D01*
X-3876620Y+1880750D01*
X-3861380Y+1880750D01*
X-3846140Y+1864875D01*
X-3830900Y+1880750D01*
X-3815660Y+1880750D01*
X-3800420Y+1864875D01*
X-3800420Y+1817250D01*
X-3815660Y+1801375D01*
X-3846140Y+1833125D02*
X-3846140Y+1864875D01*
X-7369000Y+7980000D02*
X-7369827Y+8000483D01*
X-7376545Y+8041450D01*
X-7390563Y+8082417D01*
X-7413341Y+8123384D01*
X-7448141Y+8164229D01*
X-7489108Y+8195845D01*
X-7530075Y+8216392D01*
X-7571042Y+8228629D01*
X-7612009Y+8233762D01*
X-7623000Y+8234000D01*
X-7877000Y+7980000D02*
X-7876173Y+8000483D01*
X-7869455Y+8041450D01*
X-7855437Y+8082417D01*
X-7832659Y+8123384D01*
X-7797859Y+8164229D01*
X-7756892Y+8195845D01*
X-7715925Y+8216392D01*
X-7674958Y+8228629D01*
X-7633991Y+8233762D01*
X-7623000Y+8234000D01*
X-7877000Y+7980000D02*
X-7876173Y+7959517D01*
X-7869455Y+7918550D01*
X-7855437Y+7877583D01*
X-7832659Y+7836616D01*
X-7797859Y+7795771D01*
X-7756892Y+7764155D01*
X-7715925Y+7743608D01*
X-7674958Y+7731371D01*
X-7633991Y+7726238D01*
X-7623000Y+7726000D01*
X-7369000Y+7980000D02*
X-7369827Y+7959517D01*
X-7376545Y+7918550D01*
X-7390563Y+7877583D01*
X-7413341Y+7836616D01*
X-7448141Y+7795771D01*
X-7489108Y+7764155D01*
X-7530075Y+7743608D01*
X-7571042Y+7731371D01*
X-7612009Y+7726238D01*
X-7623000Y+7726000D01*
X-7305500Y+7726000D02*
X-7432500Y+7726000D01*
X-7369000Y+7662500D02*
X-7369000Y+7789500D01*
X-7845250Y+7621860D02*
X-7845250Y+7530420D01*
X-7750000Y+7530420D01*
X-7623000Y+7530420D02*
X-7718250Y+7530420D01*
X-7718250Y+7621860D01*
X-7623000Y+7621860D01*
X-7718250Y+7576140D02*
X-7654750Y+7576140D01*
X-7591250Y+7530420D02*
X-7591250Y+7621860D01*
X-7527750Y+7621860D01*
X-7496000Y+7591380D01*
X-7496000Y+7560900D01*
X-7527750Y+7530420D01*
X-7591250Y+7530420D01*
X-7432500Y+7591380D02*
X-7400750Y+7621860D01*
X-7400750Y+7530420D01*
X-2869000Y+6730000D02*
X-2869827Y+6750483D01*
X-2876545Y+6791450D01*
X-2890563Y+6832417D01*
X-2913341Y+6873384D01*
X-2948141Y+6914229D01*
X-2989108Y+6945845D01*
X-3030075Y+6966392D01*
X-3071042Y+6978629D01*
X-3112009Y+6983762D01*
X-3123000Y+6984000D01*
X-3377000Y+6730000D02*
X-3376173Y+6750483D01*
X-3369455Y+6791450D01*
X-3355437Y+6832417D01*
X-3332659Y+6873384D01*
X-3297859Y+6914229D01*
X-3256892Y+6945845D01*
X-3215925Y+6966392D01*
X-3174958Y+6978629D01*
X-3133991Y+6983762D01*
X-3123000Y+6984000D01*
X-3377000Y+6730000D02*
X-3376173Y+6709517D01*
X-3369455Y+6668550D01*
X-3355437Y+6627583D01*
X-3332659Y+6586616D01*
X-3297859Y+6545771D01*
X-3256892Y+6514155D01*
X-3215925Y+6493608D01*
X-3174958Y+6481371D01*
X-3133991Y+6476238D01*
X-3123000Y+6476000D01*
X-2869000Y+6730000D02*
X-2869827Y+6709517D01*
X-2876545Y+6668550D01*
X-2890563Y+6627583D01*
X-2913341Y+6586616D01*
X-2948141Y+6545771D01*
X-2989108Y+6514155D01*
X-3030075Y+6493608D01*
X-3071042Y+6481371D01*
X-3112009Y+6476238D01*
X-3123000Y+6476000D01*
X-2805500Y+6476000D02*
X-2932500Y+6476000D01*
X-2869000Y+6412500D02*
X-2869000Y+6539500D01*
X-3345250Y+6371860D02*
X-3345250Y+6280420D01*
X-3250000Y+6280420D01*
X-3123000Y+6280420D02*
X-3218250Y+6280420D01*
X-3218250Y+6371860D01*
X-3123000Y+6371860D01*
X-3218250Y+6326140D02*
X-3154750Y+6326140D01*
X-3091250Y+6280420D02*
X-3091250Y+6371860D01*
X-3027750Y+6371860D01*
X-2996000Y+6341380D01*
X-2996000Y+6310900D01*
X-3027750Y+6280420D01*
X-3091250Y+6280420D01*
X-2948375Y+6356620D02*
X-2932500Y+6371860D01*
X-2884875Y+6371860D01*
X-2869000Y+6356620D01*
X-2869000Y+6341380D01*
X-2884875Y+6326140D01*
X-2932500Y+6326140D01*
X-2948375Y+6310900D01*
X-2948375Y+6280420D01*
X-2869000Y+6280420D01*
X-3869000Y+6230000D02*
X-3742000Y+6230000D01*
X-3742000Y+6166500D02*
X-3234000Y+6166500D01*
X-3234000Y+6293500D01*
X-3742000Y+6293500D01*
X-3742000Y+6166500D01*
X-3234000Y+6230000D02*
X-3107000Y+6230000D01*
X-3551500Y+6334140D02*
X-3551500Y+6425580D01*
X-3472125Y+6425580D01*
X-3456250Y+6410340D01*
X-3456250Y+6395100D01*
X-3472125Y+6379860D01*
X-3551500Y+6379860D01*
X-3472125Y+6379860D02*
X-3456250Y+6364620D01*
X-3456250Y+6334140D01*
X-7619000Y+7480000D02*
X-7492000Y+7480000D01*
X-7492000Y+7416500D02*
X-6984000Y+7416500D01*
X-6984000Y+7543500D01*
X-7492000Y+7543500D01*
X-7492000Y+7416500D01*
X-6984000Y+7480000D02*
X-6857000Y+7480000D01*
X-7365000Y+7584140D02*
X-7365000Y+7675580D01*
X-7285625Y+7675580D01*
X-7269750Y+7660340D01*
X-7269750Y+7645100D01*
X-7285625Y+7629860D01*
X-7365000Y+7629860D01*
X-7285625Y+7629860D02*
X-7269750Y+7614620D01*
X-7269750Y+7584140D01*
X-7238000Y+7584140D02*
X-7238000Y+7675580D01*
X-7158625Y+7675580D01*
X-7142750Y+7660340D01*
X-7142750Y+7645100D01*
X-7158625Y+7629860D01*
X-7238000Y+7629860D01*
X-7158625Y+7629860D02*
X-7142750Y+7614620D01*
X-7142750Y+7584140D01*
X-10000000Y+10000000D02*
X-10000000Y-500000D01*
X+250000Y-500000D01*
X+500000Y-500000D01*
X+500000Y+10000000D01*
X-10000000Y+10000000D01*
M02*
