G04 PROTEUS GERBER X2 FILE*
%TF.GenerationSoftware,Labcenter,Proteus,8.13-SP0-Build31525*%
%TF.CreationDate,2023-11-07T11:20:44+00:00*%
%TF.FileFunction,Legend,Top*%
%TF.FilePolarity,Positive*%
%TF.Part,Single*%
%TF.SameCoordinates,{293bebe2-65df-4ac3-85a1-89f43b831825}*%
%FSLAX45Y45*%
%MOMM*%
G01*
%TA.AperFunction,Material*%
%ADD17C,0.203200*%
%ADD18C,0.508000*%
%ADD19C,0.152400*%
%TD.AperFunction*%
D17*
X-13320000Y+2754000D02*
X-5750000Y+2754000D01*
X-5750000Y+10750000D01*
X-13320000Y+10750000D01*
X-13320000Y+2754000D01*
D18*
X-10771400Y+10308000D02*
X-10771531Y+10311158D01*
X-10772597Y+10317476D01*
X-10774828Y+10323794D01*
X-10778473Y+10330112D01*
X-10784048Y+10336351D01*
X-10790366Y+10340947D01*
X-10796684Y+10343880D01*
X-10803002Y+10345542D01*
X-10809320Y+10346100D01*
X-10809500Y+10346100D01*
X-10847600Y+10308000D02*
X-10847469Y+10311158D01*
X-10846403Y+10317476D01*
X-10844172Y+10323794D01*
X-10840527Y+10330112D01*
X-10834952Y+10336351D01*
X-10828634Y+10340947D01*
X-10822316Y+10343880D01*
X-10815998Y+10345542D01*
X-10809680Y+10346100D01*
X-10809500Y+10346100D01*
X-10847600Y+10308000D02*
X-10847469Y+10304842D01*
X-10846403Y+10298524D01*
X-10844172Y+10292206D01*
X-10840527Y+10285888D01*
X-10834952Y+10279649D01*
X-10828634Y+10275053D01*
X-10822316Y+10272120D01*
X-10815998Y+10270458D01*
X-10809680Y+10269900D01*
X-10809500Y+10269900D01*
X-10771400Y+10308000D02*
X-10771531Y+10304842D01*
X-10772597Y+10298524D01*
X-10774828Y+10292206D01*
X-10778473Y+10285888D01*
X-10784048Y+10279649D01*
X-10790366Y+10275053D01*
X-10796684Y+10272120D01*
X-10803002Y+10270458D01*
X-10809320Y+10269900D01*
X-10809500Y+10269900D01*
D19*
X-11127000Y+10676300D02*
X-11127000Y+8669700D01*
X-10873000Y+8669700D01*
X-10873000Y+10676300D01*
X-11127000Y+10676300D01*
D17*
X-10781560Y+9773000D02*
X-10781560Y+9804750D01*
X-10751080Y+9804750D01*
X-10751080Y+9741250D01*
X-10781560Y+9709500D01*
X-10812040Y+9709500D01*
X-10842520Y+9741250D01*
X-10842520Y+9788875D01*
X-10827280Y+9804750D01*
X-10766320Y+9836500D02*
X-10751080Y+9852375D01*
X-10751080Y+9915875D01*
X-10766320Y+9931750D01*
X-10781560Y+9931750D01*
X-10796800Y+9915875D01*
X-10796800Y+9852375D01*
X-10812040Y+9836500D01*
X-10827280Y+9836500D01*
X-10842520Y+9852375D01*
X-10842520Y+9915875D01*
X-10827280Y+9931750D01*
X-10751080Y+9963500D02*
X-10842520Y+9963500D01*
X-10796800Y+10011125D01*
X-10842520Y+10058750D01*
X-10751080Y+10058750D01*
X-7008000Y+3000000D02*
X-5992000Y+3000000D01*
X-7008000Y+4016000D02*
X-5992000Y+4016000D01*
X-5992000Y+3000000D02*
X-5992000Y+4016000D01*
X-7008000Y+3000000D02*
X-7008000Y+4016000D01*
X-7048640Y+3381000D02*
X-7140080Y+3381000D01*
X-7140080Y+3460375D01*
X-7124840Y+3476250D01*
X-7109600Y+3476250D01*
X-7094360Y+3460375D01*
X-7094360Y+3381000D01*
X-7063880Y+3508000D02*
X-7048640Y+3523875D01*
X-7048640Y+3587375D01*
X-7063880Y+3603250D01*
X-7079120Y+3603250D01*
X-7094360Y+3587375D01*
X-7094360Y+3523875D01*
X-7109600Y+3508000D01*
X-7124840Y+3508000D01*
X-7140080Y+3523875D01*
X-7140080Y+3587375D01*
X-7124840Y+3603250D01*
X-6881000Y+8004000D02*
X-6119000Y+8004000D01*
X-6119000Y+5019500D02*
X-6881000Y+5019500D01*
X-6119000Y+8004000D02*
X-6119000Y+5019500D01*
X-6881000Y+5019500D02*
X-6881000Y+8004000D01*
X-6002160Y+6384750D02*
X-5986920Y+6400625D01*
X-5986920Y+6464125D01*
X-6002160Y+6480000D01*
X-6017400Y+6480000D01*
X-6032640Y+6464125D01*
X-6032640Y+6400625D01*
X-6047880Y+6384750D01*
X-6063120Y+6384750D01*
X-6078360Y+6400625D01*
X-6078360Y+6464125D01*
X-6063120Y+6480000D01*
X-6002160Y+6511750D02*
X-5986920Y+6527625D01*
X-5986920Y+6591125D01*
X-6002160Y+6607000D01*
X-6017400Y+6607000D01*
X-6032640Y+6591125D01*
X-6032640Y+6527625D01*
X-6047880Y+6511750D01*
X-6063120Y+6511750D01*
X-6078360Y+6527625D01*
X-6078360Y+6591125D01*
X-6063120Y+6607000D01*
X-7008000Y+8246000D02*
X-5992000Y+8246000D01*
X-7008000Y+9262000D02*
X-5992000Y+9262000D01*
X-5992000Y+8246000D02*
X-5992000Y+9262000D01*
X-7008000Y+8246000D02*
X-7008000Y+9262000D01*
X-7063880Y+8627000D02*
X-7048640Y+8642875D01*
X-7048640Y+8706375D01*
X-7063880Y+8722250D01*
X-7079120Y+8722250D01*
X-7094360Y+8706375D01*
X-7094360Y+8642875D01*
X-7109600Y+8627000D01*
X-7124840Y+8627000D01*
X-7140080Y+8642875D01*
X-7140080Y+8706375D01*
X-7124840Y+8722250D01*
X-7140080Y+8754000D02*
X-7048640Y+8754000D01*
X-7094360Y+8801625D01*
X-7048640Y+8849250D01*
X-7140080Y+8849250D01*
X-10877000Y+3115000D02*
X-10623000Y+3115000D01*
X-10623000Y+3877000D01*
X-10877000Y+3877000D01*
X-10877000Y+3115000D01*
X-10623000Y+3877000D02*
X-10496000Y+3877000D01*
X-10496000Y+3115000D01*
X-10623000Y+3115000D01*
X-10623000Y+3877000D02*
X-10496000Y+3750000D01*
X-10623000Y+3750000D02*
X-10496000Y+3623000D01*
X-10623000Y+3623000D02*
X-10496000Y+3496000D01*
X-10623000Y+3496000D02*
X-10496000Y+3369000D01*
X-10623000Y+3369000D02*
X-10496000Y+3242000D01*
X-10623000Y+3242000D02*
X-10496000Y+3115000D01*
X-10455360Y+3369000D02*
X-10379160Y+3369000D01*
X-10363920Y+3384875D01*
X-10363920Y+3448375D01*
X-10379160Y+3464250D01*
X-10455360Y+3464250D01*
X-10440120Y+3511875D02*
X-10455360Y+3527750D01*
X-10455360Y+3575375D01*
X-10440120Y+3591250D01*
X-10424880Y+3591250D01*
X-10409640Y+3575375D01*
X-10409640Y+3527750D01*
X-10394400Y+3511875D01*
X-10363920Y+3511875D01*
X-10363920Y+3591250D01*
X-9127000Y+3115000D02*
X-8873000Y+3115000D01*
X-8873000Y+3877000D01*
X-9127000Y+3877000D01*
X-9127000Y+3115000D01*
X-8873000Y+3877000D02*
X-8746000Y+3877000D01*
X-8746000Y+3115000D01*
X-8873000Y+3115000D01*
X-8873000Y+3877000D02*
X-8746000Y+3750000D01*
X-8873000Y+3750000D02*
X-8746000Y+3623000D01*
X-8873000Y+3623000D02*
X-8746000Y+3496000D01*
X-8873000Y+3496000D02*
X-8746000Y+3369000D01*
X-8873000Y+3369000D02*
X-8746000Y+3242000D01*
X-8873000Y+3242000D02*
X-8746000Y+3115000D01*
X-8705360Y+3369000D02*
X-8629160Y+3369000D01*
X-8613920Y+3384875D01*
X-8613920Y+3448375D01*
X-8629160Y+3464250D01*
X-8705360Y+3464250D01*
X-8690120Y+3511875D02*
X-8705360Y+3527750D01*
X-8705360Y+3575375D01*
X-8690120Y+3591250D01*
X-8674880Y+3591250D01*
X-8659640Y+3575375D01*
X-8644400Y+3591250D01*
X-8629160Y+3591250D01*
X-8613920Y+3575375D01*
X-8613920Y+3527750D01*
X-8629160Y+3511875D01*
X-8659640Y+3543625D02*
X-8659640Y+3575375D01*
X-12627000Y+3115000D02*
X-12373000Y+3115000D01*
X-12373000Y+3877000D01*
X-12627000Y+3877000D01*
X-12627000Y+3115000D01*
X-12373000Y+3877000D02*
X-12246000Y+3877000D01*
X-12246000Y+3115000D01*
X-12373000Y+3115000D01*
X-12373000Y+3877000D02*
X-12246000Y+3750000D01*
X-12373000Y+3750000D02*
X-12246000Y+3623000D01*
X-12373000Y+3623000D02*
X-12246000Y+3496000D01*
X-12373000Y+3496000D02*
X-12246000Y+3369000D01*
X-12373000Y+3369000D02*
X-12246000Y+3242000D01*
X-12373000Y+3242000D02*
X-12246000Y+3115000D01*
X-12205360Y+3369000D02*
X-12129160Y+3369000D01*
X-12113920Y+3384875D01*
X-12113920Y+3448375D01*
X-12129160Y+3464250D01*
X-12205360Y+3464250D01*
X-12174880Y+3527750D02*
X-12205360Y+3559500D01*
X-12113920Y+3559500D01*
X-12623000Y+4266000D02*
X-12496000Y+4266000D01*
X-12496000Y+4202500D02*
X-11988000Y+4202500D01*
X-11988000Y+4329500D01*
X-12496000Y+4329500D01*
X-12496000Y+4202500D01*
X-11988000Y+4266000D02*
X-11861000Y+4266000D01*
X-12369000Y+4370140D02*
X-12369000Y+4461580D01*
X-12289625Y+4461580D01*
X-12273750Y+4446340D01*
X-12273750Y+4431100D01*
X-12289625Y+4415860D01*
X-12369000Y+4415860D01*
X-12289625Y+4415860D02*
X-12273750Y+4400620D01*
X-12273750Y+4370140D01*
X-12210250Y+4431100D02*
X-12178500Y+4461580D01*
X-12178500Y+4370140D01*
X-10453000Y+6500000D02*
X-10580000Y+6500000D01*
X-11088000Y+6436500D02*
X-10580000Y+6436500D01*
X-10580000Y+6563500D01*
X-11088000Y+6563500D01*
X-11088000Y+6436500D01*
X-11088000Y+6500000D02*
X-11215000Y+6500000D01*
X-10897500Y+6304420D02*
X-10897500Y+6395860D01*
X-10818125Y+6395860D01*
X-10802250Y+6380620D01*
X-10802250Y+6365380D01*
X-10818125Y+6350140D01*
X-10897500Y+6350140D01*
X-10818125Y+6350140D02*
X-10802250Y+6334900D01*
X-10802250Y+6304420D01*
X-11608634Y+7500000D02*
X-11609694Y+7526500D01*
X-11618297Y+7579502D01*
X-11636234Y+7632504D01*
X-11665323Y+7685506D01*
X-11709679Y+7738446D01*
X-11762681Y+7780206D01*
X-11815683Y+7807499D01*
X-11868685Y+7824003D01*
X-11921687Y+7831332D01*
X-11940500Y+7831866D01*
X-12272366Y+7500000D02*
X-12271306Y+7526500D01*
X-12262703Y+7579502D01*
X-12244766Y+7632504D01*
X-12215677Y+7685506D01*
X-12171321Y+7738446D01*
X-12118319Y+7780206D01*
X-12065317Y+7807499D01*
X-12012315Y+7824003D01*
X-11959313Y+7831332D01*
X-11940500Y+7831866D01*
X-12272366Y+7500000D02*
X-12271306Y+7473500D01*
X-12262703Y+7420498D01*
X-12244766Y+7367496D01*
X-12215677Y+7314494D01*
X-12171321Y+7261554D01*
X-12118319Y+7219794D01*
X-12065317Y+7192501D01*
X-12012315Y+7175997D01*
X-11959313Y+7168668D01*
X-11940500Y+7168134D01*
X-11608634Y+7500000D02*
X-11609694Y+7473500D01*
X-11618297Y+7420498D01*
X-11636234Y+7367496D01*
X-11665323Y+7314494D01*
X-11709679Y+7261554D01*
X-11762681Y+7219794D01*
X-11815683Y+7192501D01*
X-11868685Y+7175997D01*
X-11921687Y+7168668D01*
X-11940500Y+7168134D01*
X-12194500Y+7127494D02*
X-12194500Y+7036054D01*
X-12099250Y+7036054D01*
X-12067500Y+7036054D02*
X-12067500Y+7127494D01*
X-12004000Y+7127494D01*
X-11972250Y+7097014D01*
X-11972250Y+7066534D01*
X-12004000Y+7036054D01*
X-12067500Y+7036054D01*
X-11940500Y+7036054D02*
X-11940500Y+7127494D01*
X-11861125Y+7127494D01*
X-11845250Y+7112254D01*
X-11845250Y+7097014D01*
X-11861125Y+7081774D01*
X-11940500Y+7081774D01*
X-11861125Y+7081774D02*
X-11845250Y+7066534D01*
X-11845250Y+7036054D01*
X-11797625Y+7112254D02*
X-11781750Y+7127494D01*
X-11734125Y+7127494D01*
X-11718250Y+7112254D01*
X-11718250Y+7097014D01*
X-11734125Y+7081774D01*
X-11781750Y+7081774D01*
X-11797625Y+7066534D01*
X-11797625Y+7036054D01*
X-11718250Y+7036054D01*
X-11608634Y+5250000D02*
X-11609694Y+5276500D01*
X-11618297Y+5329502D01*
X-11636234Y+5382504D01*
X-11665323Y+5435506D01*
X-11709679Y+5488446D01*
X-11762681Y+5530206D01*
X-11815683Y+5557499D01*
X-11868685Y+5574003D01*
X-11921687Y+5581332D01*
X-11940500Y+5581866D01*
X-12272366Y+5250000D02*
X-12271306Y+5276500D01*
X-12262703Y+5329502D01*
X-12244766Y+5382504D01*
X-12215677Y+5435506D01*
X-12171321Y+5488446D01*
X-12118319Y+5530206D01*
X-12065317Y+5557499D01*
X-12012315Y+5574003D01*
X-11959313Y+5581332D01*
X-11940500Y+5581866D01*
X-12272366Y+5250000D02*
X-12271306Y+5223500D01*
X-12262703Y+5170498D01*
X-12244766Y+5117496D01*
X-12215677Y+5064494D01*
X-12171321Y+5011554D01*
X-12118319Y+4969794D01*
X-12065317Y+4942501D01*
X-12012315Y+4925997D01*
X-11959313Y+4918668D01*
X-11940500Y+4918134D01*
X-11608634Y+5250000D02*
X-11609694Y+5223500D01*
X-11618297Y+5170498D01*
X-11636234Y+5117496D01*
X-11665323Y+5064494D01*
X-11709679Y+5011554D01*
X-11762681Y+4969794D01*
X-11815683Y+4942501D01*
X-11868685Y+4925997D01*
X-11921687Y+4918668D01*
X-11940500Y+4918134D01*
X-11694500Y+5627494D02*
X-11694500Y+5536054D01*
X-11599250Y+5536054D01*
X-11567500Y+5536054D02*
X-11567500Y+5627494D01*
X-11504000Y+5627494D01*
X-11472250Y+5597014D01*
X-11472250Y+5566534D01*
X-11504000Y+5536054D01*
X-11567500Y+5536054D01*
X-11440500Y+5536054D02*
X-11440500Y+5627494D01*
X-11361125Y+5627494D01*
X-11345250Y+5612254D01*
X-11345250Y+5597014D01*
X-11361125Y+5581774D01*
X-11440500Y+5581774D01*
X-11361125Y+5581774D02*
X-11345250Y+5566534D01*
X-11345250Y+5536054D01*
X-11281750Y+5597014D02*
X-11250000Y+5627494D01*
X-11250000Y+5536054D01*
X-10457000Y+6250000D02*
X-10584000Y+6250000D01*
X-11092000Y+6186500D02*
X-10584000Y+6186500D01*
X-10584000Y+6313500D01*
X-11092000Y+6313500D01*
X-11092000Y+6186500D01*
X-11092000Y+6250000D02*
X-11219000Y+6250000D01*
X-10965000Y+6054420D02*
X-10965000Y+6145860D01*
X-10885625Y+6145860D01*
X-10869750Y+6130620D01*
X-10869750Y+6115380D01*
X-10885625Y+6100140D01*
X-10965000Y+6100140D01*
X-10885625Y+6100140D02*
X-10869750Y+6084900D01*
X-10869750Y+6054420D01*
X-10838000Y+6054420D02*
X-10838000Y+6145860D01*
X-10758625Y+6145860D01*
X-10742750Y+6130620D01*
X-10742750Y+6115380D01*
X-10758625Y+6100140D01*
X-10838000Y+6100140D01*
X-10758625Y+6100140D02*
X-10742750Y+6084900D01*
X-10742750Y+6054420D01*
D18*
X-8402400Y+4964000D02*
X-8402531Y+4967158D01*
X-8403597Y+4973476D01*
X-8405828Y+4979794D01*
X-8409473Y+4986112D01*
X-8415048Y+4992351D01*
X-8421366Y+4996947D01*
X-8427684Y+4999880D01*
X-8434002Y+5001542D01*
X-8440320Y+5002100D01*
X-8440500Y+5002100D01*
X-8478600Y+4964000D02*
X-8478469Y+4967158D01*
X-8477403Y+4973476D01*
X-8475172Y+4979794D01*
X-8471527Y+4986112D01*
X-8465952Y+4992351D01*
X-8459634Y+4996947D01*
X-8453316Y+4999880D01*
X-8446998Y+5001542D01*
X-8440680Y+5002100D01*
X-8440500Y+5002100D01*
X-8478600Y+4964000D02*
X-8478469Y+4960842D01*
X-8477403Y+4954524D01*
X-8475172Y+4948206D01*
X-8471527Y+4941888D01*
X-8465952Y+4935649D01*
X-8459634Y+4931053D01*
X-8453316Y+4928120D01*
X-8446998Y+4926458D01*
X-8440680Y+4925900D01*
X-8440500Y+4925900D01*
X-8402400Y+4964000D02*
X-8402531Y+4960842D01*
X-8403597Y+4954524D01*
X-8405828Y+4948206D01*
X-8409473Y+4941888D01*
X-8415048Y+4935649D01*
X-8421366Y+4931053D01*
X-8427684Y+4928120D01*
X-8434002Y+4926458D01*
X-8440320Y+4925900D01*
X-8440500Y+4925900D01*
D19*
X-8123000Y+4595700D02*
X-8123000Y+10158300D01*
X-8377000Y+10158300D01*
X-8377000Y+4595700D01*
X-8123000Y+4595700D01*
D17*
X-8564960Y+7250000D02*
X-8549720Y+7250000D01*
X-8534480Y+7265875D01*
X-8534480Y+7329375D01*
X-8549720Y+7345250D01*
X-8625920Y+7345250D01*
X-8595440Y+7408750D02*
X-8625920Y+7440500D01*
X-8534480Y+7440500D01*
D18*
X-9902400Y+4964000D02*
X-9902531Y+4967158D01*
X-9903597Y+4973476D01*
X-9905828Y+4979794D01*
X-9909473Y+4986112D01*
X-9915048Y+4992351D01*
X-9921366Y+4996947D01*
X-9927684Y+4999880D01*
X-9934002Y+5001542D01*
X-9940320Y+5002100D01*
X-9940500Y+5002100D01*
X-9978600Y+4964000D02*
X-9978469Y+4967158D01*
X-9977403Y+4973476D01*
X-9975172Y+4979794D01*
X-9971527Y+4986112D01*
X-9965952Y+4992351D01*
X-9959634Y+4996947D01*
X-9953316Y+4999880D01*
X-9946998Y+5001542D01*
X-9940680Y+5002100D01*
X-9940500Y+5002100D01*
X-9978600Y+4964000D02*
X-9978469Y+4960842D01*
X-9977403Y+4954524D01*
X-9975172Y+4948206D01*
X-9971527Y+4941888D01*
X-9965952Y+4935649D01*
X-9959634Y+4931053D01*
X-9953316Y+4928120D01*
X-9946998Y+4926458D01*
X-9940680Y+4925900D01*
X-9940500Y+4925900D01*
X-9902400Y+4964000D02*
X-9902531Y+4960842D01*
X-9903597Y+4954524D01*
X-9905828Y+4948206D01*
X-9909473Y+4941888D01*
X-9915048Y+4935649D01*
X-9921366Y+4931053D01*
X-9927684Y+4928120D01*
X-9934002Y+4926458D01*
X-9940320Y+4925900D01*
X-9940500Y+4925900D01*
D19*
X-9623000Y+4595700D02*
X-9623000Y+10158300D01*
X-9877000Y+10158300D01*
X-9877000Y+4595700D01*
X-9623000Y+4595700D01*
D17*
X-10064960Y+7250000D02*
X-10049720Y+7250000D01*
X-10034480Y+7265875D01*
X-10034480Y+7329375D01*
X-10049720Y+7345250D01*
X-10125920Y+7345250D01*
X-10110680Y+7392875D02*
X-10125920Y+7408750D01*
X-10125920Y+7456375D01*
X-10110680Y+7472250D01*
X-10095440Y+7472250D01*
X-10080200Y+7456375D01*
X-10080200Y+7408750D01*
X-10064960Y+7392875D01*
X-10034480Y+7392875D01*
X-10034480Y+7472250D01*
X-6873000Y+4750000D02*
X-7000000Y+4750000D01*
X-7508000Y+4686500D02*
X-7000000Y+4686500D01*
X-7000000Y+4813500D01*
X-7508000Y+4813500D01*
X-7508000Y+4686500D01*
X-7508000Y+4750000D02*
X-7635000Y+4750000D01*
X-7381000Y+4554420D02*
X-7381000Y+4645860D01*
X-7301625Y+4645860D01*
X-7285750Y+4630620D01*
X-7285750Y+4615380D01*
X-7301625Y+4600140D01*
X-7381000Y+4600140D01*
X-7301625Y+4600140D02*
X-7285750Y+4584900D01*
X-7285750Y+4554420D01*
X-7158750Y+4584900D02*
X-7254000Y+4584900D01*
X-7190500Y+4645860D01*
X-7190500Y+4554420D01*
X-11877000Y+4750000D02*
X-12004000Y+4750000D01*
X-12512000Y+4686500D02*
X-12004000Y+4686500D01*
X-12004000Y+4813500D01*
X-12512000Y+4813500D01*
X-12512000Y+4686500D01*
X-12512000Y+4750000D02*
X-12639000Y+4750000D01*
X-12385000Y+4554420D02*
X-12385000Y+4645860D01*
X-12305625Y+4645860D01*
X-12289750Y+4630620D01*
X-12289750Y+4615380D01*
X-12305625Y+4600140D01*
X-12385000Y+4600140D01*
X-12305625Y+4600140D02*
X-12289750Y+4584900D01*
X-12289750Y+4554420D01*
X-12242125Y+4630620D02*
X-12226250Y+4645860D01*
X-12178625Y+4645860D01*
X-12162750Y+4630620D01*
X-12162750Y+4615380D01*
X-12178625Y+4600140D01*
X-12226250Y+4600140D01*
X-12242125Y+4584900D01*
X-12242125Y+4554420D01*
X-12162750Y+4554420D01*
X-7250000Y+3377000D02*
X-7250000Y+3504000D01*
X-7313500Y+3504000D02*
X-7186500Y+3504000D01*
X-7186500Y+4012000D01*
X-7313500Y+4012000D01*
X-7313500Y+3504000D01*
X-7250000Y+4012000D02*
X-7250000Y+4139000D01*
X-7354140Y+3631000D02*
X-7445580Y+3631000D01*
X-7445580Y+3710375D01*
X-7430340Y+3726250D01*
X-7415100Y+3726250D01*
X-7399860Y+3710375D01*
X-7399860Y+3631000D01*
X-7399860Y+3710375D02*
X-7384620Y+3726250D01*
X-7354140Y+3726250D01*
X-7430340Y+3773875D02*
X-7445580Y+3789750D01*
X-7445580Y+3837375D01*
X-7430340Y+3853250D01*
X-7415100Y+3853250D01*
X-7399860Y+3837375D01*
X-7384620Y+3853250D01*
X-7369380Y+3853250D01*
X-7354140Y+3837375D01*
X-7354140Y+3789750D01*
X-7369380Y+3773875D01*
X-7399860Y+3805625D02*
X-7399860Y+3837375D01*
D18*
X-12895400Y+10052000D02*
X-12895531Y+10055158D01*
X-12896597Y+10061476D01*
X-12898828Y+10067794D01*
X-12902473Y+10074112D01*
X-12908048Y+10080351D01*
X-12914366Y+10084947D01*
X-12920684Y+10087880D01*
X-12927002Y+10089542D01*
X-12933320Y+10090100D01*
X-12933500Y+10090100D01*
X-12971600Y+10052000D02*
X-12971469Y+10055158D01*
X-12970403Y+10061476D01*
X-12968172Y+10067794D01*
X-12964527Y+10074112D01*
X-12958952Y+10080351D01*
X-12952634Y+10084947D01*
X-12946316Y+10087880D01*
X-12939998Y+10089542D01*
X-12933680Y+10090100D01*
X-12933500Y+10090100D01*
X-12971600Y+10052000D02*
X-12971469Y+10048842D01*
X-12970403Y+10042524D01*
X-12968172Y+10036206D01*
X-12964527Y+10029888D01*
X-12958952Y+10023649D01*
X-12952634Y+10019053D01*
X-12946316Y+10016120D01*
X-12939998Y+10014458D01*
X-12933680Y+10013900D01*
X-12933500Y+10013900D01*
X-12895400Y+10052000D02*
X-12895531Y+10048842D01*
X-12896597Y+10042524D01*
X-12898828Y+10036206D01*
X-12902473Y+10029888D01*
X-12908048Y+10023649D01*
X-12914366Y+10019053D01*
X-12920684Y+10016120D01*
X-12927002Y+10014458D01*
X-12933320Y+10013900D01*
X-12933500Y+10013900D01*
D19*
X-13251000Y+10420300D02*
X-13251000Y+8413700D01*
X-12997000Y+8413700D01*
X-12997000Y+10420300D01*
X-13251000Y+10420300D01*
D17*
X-12778560Y+9226500D02*
X-12778560Y+9258250D01*
X-12748080Y+9258250D01*
X-12748080Y+9194750D01*
X-12778560Y+9163000D01*
X-12809040Y+9163000D01*
X-12839520Y+9194750D01*
X-12839520Y+9242375D01*
X-12824280Y+9258250D01*
X-12763320Y+9290000D02*
X-12748080Y+9305875D01*
X-12748080Y+9369375D01*
X-12763320Y+9385250D01*
X-12778560Y+9385250D01*
X-12793800Y+9369375D01*
X-12793800Y+9305875D01*
X-12809040Y+9290000D01*
X-12824280Y+9290000D01*
X-12839520Y+9305875D01*
X-12839520Y+9369375D01*
X-12824280Y+9385250D01*
X-12748080Y+9417000D02*
X-12839520Y+9417000D01*
X-12793800Y+9464625D01*
X-12839520Y+9512250D01*
X-12748080Y+9512250D01*
X-12809040Y+9575750D02*
X-12839520Y+9607500D01*
X-12748080Y+9607500D01*
M02*
